<!DOCTYPE svg PUBLIC "-//W3C//DTD SVG 1.1//EN" "http://www.w3.org/Graphics/SVG/1.1/DTD/svg11.dtd">
<svg xmlns="http://www.w3.org/2000/svg" xmlns:xlink="http://www.w3.org/1999/xlink" width="152px" height="25px" viewBox="0 0 151.8 22.4">
	<path d="M150.8 17.9h1V0h-1v7.9h0c-0.7-2-2.6-3.2-4.8-3.2 -3.9 0-5.7 3-5.7 6.7 0 3.6 1.7 6.7 5.6 6.7 2.3 0 3.9-1 4.9-3h0V17.9zM146 17.3c-3.3 0-4.8-2.9-4.8-5.9 0-3.1 1.4-5.9 4.8-5.9 3.3 0 4.8 2.9 4.8 5.9C150.8 14.4 149.3 17.3 146 17.3M137.6 8.1c0-2.7-2.2-3.4-4.5-3.4 -3 0-4.8 1.4-4.9 4.3h1c0.1-2.2 1.6-3.4 3.9-3.4 2.9 0 3.6 1.9 3.6 2.5 0 2.1-0.2 2.4-4.4 2.7 -2.1 0.2-4.7 0.8-4.7 3.8 0 2.7 1.9 3.6 4.3 3.6 2.4 0 4.2-1.3 4.8-2.8h0V16c0 1 0.2 1.9 1.7 1.9 0.3 0 0.5 0 0.8-0.1V17c-0.3 0-0.5 0.1-0.7 0.1 -0.8 0-0.8-0.8-0.8-1.6V8.1zM136.7 13c0 0.7-0.5 4.4-4.8 4.4 -2.3 0-3.4-1.2-3.4-2.8 0-1.9 1.3-2.7 3.5-3 1.8-0.3 3.9-0.1 4.7-1V13zM114.8 11.4c0-3.1 1.7-5.9 4.9-5.9 3.2 0 4.9 2.8 4.9 5.9 0 3.1-1.7 5.9-4.9 5.9C116.5 17.3 114.8 14.5 114.8 11.4M113.9 11.4c0 3.7 2.1 6.7 5.9 6.7 3.8 0 5.9-3.1 5.9-6.7 0-3.6-2.1-6.7-5.9-6.7C116 4.7 113.9 7.8 113.9 11.4M110.2 17.9h0.9V0h-0.9V17.9zM96.8 17.9h0.9v-7c0-3.1 1.8-5.4 4.6-5.4 3.5 0 3.7 2.9 3.7 4.2v8.1h0.9V9.9c0-1.6 0-5.2-4.6-5.2 -2 0-3.9 1.1-4.6 3.1h-0.1V5h-0.9V17.9zM78.5 5h-1l4.1 12.8h1.2l3.6-11.6h0l3.5 11.6h1.2L95.2 5h-1l-3.6 11.8h0L87 5h-1.3l-3.5 11.8h0L78.5 5zM65.6 11.4c0-3.1 1.7-5.9 4.9-5.9 3.2 0 5 2.8 5 5.9 0 3.1-1.7 5.9-5 5.9C67.3 17.3 65.6 14.5 65.6 11.4M64.7 11.4c0 3.7 2.1 6.7 5.9 6.7s5.9-3.1 5.9-6.7c0-3.6-2.1-6.7-5.9-6.7S64.7 7.8 64.7 11.4M61 17.9h1V0h-1v7.9h0c-0.7-2-2.6-3.2-4.8-3.2 -3.9 0-5.7 3-5.7 6.7 0 3.6 1.7 6.7 5.6 6.7 2.3 0 3.9-1 4.9-3h0V17.9zM56.3 17.3c-3.3 0-4.8-2.9-4.8-5.9 0-3.1 1.4-5.9 4.8-5.9 3.3 0 4.8 2.9 4.8 5.9C61 14.4 59.5 17.3 56.3 17.3M38.9 11.4c0-2.1 0.7-4.1 3.1-4.1 2.4 0 3.1 2.1 3.1 4.1 0 2.1-0.7 4.1-3.1 4.1C39.7 15.5 38.9 13.5 38.9 11.4M35.4 11.4c0 4.1 2.6 6.8 6.7 6.8 4.1 0 6.7-2.7 6.7-6.8 0-4.1-2.6-6.8-6.7-6.8C38 4.6 35.4 7.3 35.4 11.4M22 17.9h3.5v-6.8c0-2.6 0.8-3.7 2.8-3.7 1.7 0 2.3 1.1 2.3 3.2v7.3h3.5V9.9c0-3.2-0.9-5.3-4.7-5.3 -1.5 0-3.1 0.7-3.9 2.1h-0.1V4.9H22V17.9zM19.9 4.9h-3.6v6.8c0 2.6-0.8 3.7-2.7 3.7 -1.7 0-2.3-1.1-2.3-3.2V4.9H7.8v7.9c0 3.2 0.9 5.3 4.7 5.3 1.5 0 3-0.7 3.9-2.1h0.1v1.8h3.4V4.9zM5.7 0H2.1v2.9h3.5V0zM0 22.3c0.4 0 0.8 0.1 1.1 0.1 3.6 0 4.5-1.2 4.5-3.9V4.9H2.1v13.4c0 1-0.6 1.1-1.4 1.1 -0.3 0-0.5 0-0.8-0.1V22.3z" fill="#FFF"></path>
</svg>