<!DOCTYPE svg PUBLIC "-//W3C//DTD SVG 1.1//EN" "http://www.w3.org/Graphics/SVG/1.1/DTD/svg11.dtd">
<svg xmlns="http://www.w3.org/2000/svg" xmlns:xlink="http://www.w3.org/1999/xlink" x="0px" y="0px" width="690px" height="120px" viewBox="-5 -5 690 120" version="1.1">
	<g id="PsyhopLogo">
		<path style="fill:#6699ff" d="M666.561,16.47c-6.241-9.533-17.004-15.833-29.263-15.833c-12.254,0-23.016,6.3-29.258,15.833    c-3.608,5.504-5.717,12.083-5.717,19.159c0,0.142,0.033,68.684,0.033,68.684c0,3.032,2.396,5.489,5.352,5.489    c0,0,5.791,0,5.791-0.001c2.951-0.003,6.598-2.459,6.613-5.488c0,0-0.023-28.148-0.025-31.577c0-1.632,0.399-3.8,1.934-4.688    c2.098-1.214,4.229,0.525,6.162,1.151c2.94,0.952,6.033,1.378,9.12,1.377c19.306-0.006,34.976-15.659,34.976-34.947    C672.278,28.553,670.171,21.974,666.561,16.47z M654.765,36.066c-0.237,9.383-7.95,16.979-17.422,17.003v0.014h-0.082V53.07    c-9.471-0.025-17.186-7.621-17.423-17.003v-0.511c0.026-8.408,6.026-15.442,13.952-17.069c1.137-0.233,2.309-0.355,3.51-0.355    c1.204,0,2.377,0.123,3.513,0.355c7.926,1.627,13.926,8.661,13.952,17.069V36.066z"/>
		<path style="fill:#6699ff" d="M551.415,0.183c-19.404,0-35.082,13.916-35.082,31.053V78.74c0,17.147,15.678,31.05,35.082,31.05    c19.371,0,35.078-13.902,35.078-31.05V31.236C586.493,14.099,570.786,0.183,551.415,0.183z M568.741,78.08    c0,8.491-7.735,15.412-17.223,15.412c-9.475,0-17.207-6.921-17.207-15.412h-0.096V33.004h0.096    c0-8.496,7.732-15.413,17.207-15.413c9.487,0,17.209,6.917,17.223,15.413h0.069V78.08H568.741z"/>
		<path style="fill:#6699ff" d="M503.677,80.16c-0.305-17.051-7.189-32.016-24.456-37.268c0-10.336-0.104-20.484-0.104-31.051    c0-0.025,0.022-1.048,0.027-1.551c0.094-3.352,0.256-7.055-2.401-8.775c-1.386-1.065-3.288-1.495-5.18-1.514    c-0.268-0.004-2.375-0.004-2.643,0c-1.892,0.019-3.794,0.449-5.185,1.517c-2.652,1.717-2.49,5.421-2.396,8.772    c0.005,0.503,0.027,1.526,0.027,1.551c0,10.567-0.104,20.714-0.104,31.051c-15.439,4.696-19.577,14.849-22.113,20.542    c-2.379,5.342-2.241,11.012-2.343,16.727c-0.109,6.122-0.104,15.568-0.104,21.746c0,7.791,3.709,7.949,9.476,7.949    c5.156,0,8.612-1.158,8.612-7.394c0-4.402-0.133-12.151-0.086-16.553c0.051-4.854-0.37-10.662,1.437-15.26    c0.658-1.675,1.84-3.393,3.08-4.675c3.257-3.368,6.596-5.134,11.021-5.295c4.425,0.161,7.764,1.927,11.021,5.295    c1.24,1.282,2.422,3,3.08,4.675c1.807,4.598,1.386,10.405,1.437,15.26c0.047,4.401-0.086,12.15-0.086,16.553    c0,6.235,3.392,7.394,8.612,7.394c5.767,0,9.476-0.158,9.476-7.949C503.78,95.728,503.786,86.282,503.677,80.16z"/>
		<path style="fill:#6699ff" d="M422.677,68.133c-2.643-7.188-8.73-13.262-14.951-17.514c-3.967-2.71-8.423-4.55-12.639-6.817    c-2.158-1.16-4.253-2.432-6.186-3.943c-3.188-2.492-5.475-6.601-5.475-10.622c0-3.701,2.548-7.841,5.606-9.738    c6.225-3.861,13.248-1.354,18.671,2.924c5.552,4.38,6.879,2.874,11.057-1.372c4.337-4.407,5.818-6.737-1.259-12.095    c-6.571-4.975-12.106-8.287-20.544-8.287c-4.574,0-8.723,0.784-12.404,2.332c-3.705,1.566-6.845,3.614-9.472,6.179    c-2.606,2.549-4.574,5.489-5.935,8.82c-3.36,8.299-3.264,18.696,1.354,26.515c1.328,2.251,2.969,4.386,4.666,6.371    c3.477,4.067,8.483,7.211,13.115,9.821c5.343,3.013,10.504,5.748,14.943,10.099c2.744,2.689,4.18,7.282,3.478,10.995    c-0.813,4.3-4.052,7.726-8.161,9.084c-2.132,0.704-5.041,1.265-7.291,0.996c-3.242-0.387-6.492-1.703-9.141-3.621    c-1.112-0.807-1.955-1.396-3.008-2.278c-3.522-2.954-7.701-1.137-10.424,1.688c-2.528,2.621-5.336,6.188-3.146,9.846    c1.012,1.69,2.569,2.938,4.102,4.139c5.039,3.95,10.612,6.741,16.988,7.687c1.816,0.269,3.66,0.38,5.496,0.38    c4.374,0,8.502-1.222,12.429-2.82c3.905-1.621,7.312-3.747,10.218-6.402c2.945-2.66,5.234-5.756,6.883-9.298    c1.669-3.521,2.512-7.267,2.512-11.223C424.159,75.705,423.86,71.418,422.677,68.133z"/>
		<path style="fill:#6699ff" d="M353.927,29.695c-0.305,17.051-7.189,32.016-24.456,37.268c0,10.337-0.104,20.484-0.104,31.051    c0,0.025,0.022,1.049,0.027,1.552c0.094,3.352,0.256,7.056-2.401,8.775c-1.386,1.065-3.288,1.495-5.18,1.515    c-0.268,0.004-2.375,0.004-2.643,0c-1.892-0.02-3.794-0.449-5.185-1.518c-2.652-1.717-2.49-5.421-2.396-8.772    c0.005-0.503,0.027-1.526,0.027-1.552c0-10.566-0.104-20.714-0.104-31.051c-7.313-2.225-14.103-6.889-18.413-13.243    c-5.06-7.458-5.887-15.232-6.043-24.025c-0.109-6.122-0.104-15.1-0.104-21.278c0-7.791,3.709-7.949,9.476-7.949    c5.574,0,8.612,1.158,8.612,7.394c0,4.402-0.133,11.683-0.086,16.084c0.051,4.854-0.37,10.662,1.437,15.26    c0.658,1.675,1.84,3.393,3.08,4.675c3.257,3.368,6.596,5.134,11.021,5.295c4.425-0.161,7.764-1.927,11.021-5.295    c1.24-1.282,2.422-3,3.08-4.675c1.807-4.598,1.386-10.405,1.437-15.26c0.047-4.401-0.086-11.682-0.086-16.084    c0-6.235,3.059-7.394,8.612-7.394c5.767,0,9.476,0.158,9.476,7.949C354.03,14.595,354.036,23.573,353.927,29.695z"/>
		<path style="fill:#6699ff" d="M275.067,68.133c-2.643-7.188-8.73-13.262-14.951-17.514c-3.967-2.71-8.423-4.55-12.639-6.817    c-2.158-1.16-4.253-2.432-6.186-3.943c-3.188-2.492-5.475-6.601-5.475-10.622c0-3.701,2.548-7.841,5.606-9.738    c6.225-3.861,13.248-1.354,18.671,2.924c5.552,4.38,6.879,2.874,11.057-1.372c4.337-4.407,5.818-6.737-1.259-12.095    c-6.571-4.975-12.106-8.287-20.544-8.287c-4.574,0-8.723,0.784-12.404,2.332c-3.705,1.566-6.845,3.614-9.472,6.179    c-2.606,2.549-4.574,5.489-5.935,8.82c-3.36,8.299-3.264,18.696,1.354,26.515c1.328,2.251,2.969,4.386,4.666,6.371    c3.477,4.067,8.483,7.211,13.115,9.821c5.343,3.013,10.504,5.748,14.943,10.099c2.744,2.689,4.18,7.282,3.478,10.995    c-0.813,4.3-4.052,7.726-8.161,9.084c-2.132,0.704-5.041,1.265-7.291,0.996c-3.242-0.387-6.492-1.703-9.141-3.621    c-1.112-0.807-1.955-1.396-3.008-2.278c-3.522-2.954-7.701-1.137-10.424,1.688c-2.528,2.621-5.336,6.188-3.146,9.846    c0.998,1.668,2.525,2.917,4.05,4.083c5.143,3.934,10.566,6.764,17.029,7.739c1.82,0.274,3.667,0.383,5.507,0.383    c4.374,0,8.502-1.222,12.429-2.82c3.905-1.621,7.312-3.747,10.218-6.402c2.945-2.66,5.234-5.756,6.883-9.298    c1.669-3.521,2.512-7.267,2.512-11.223C276.55,75.705,276.251,71.418,275.067,68.133z"/>
		<path style="fill:#6699ff" d="M200.992,16.47C194.75,6.937,183.988,0.637,171.73,0.637c-12.254,0-23.016,6.3-29.258,15.833    c-3.609,5.504-5.717,12.083-5.717,19.159c0,0.142,0,34.897,0.011,34.897l0.022,33.786c0,3.032,2.396,5.489,5.352,5.489    c0,0,5.79,0,5.79-0.001c2.951-0.003,6.599-2.459,6.614-5.488c0,0-0.024-28.148-0.026-31.577c0-1.632,0.399-3.8,1.934-4.688    c2.098-1.214,4.228,0.525,6.162,1.151c2.94,0.952,6.033,1.378,9.12,1.377c19.306-0.006,34.976-15.659,34.976-34.947    C206.71,28.553,204.603,21.974,200.992,16.47z M189.196,36.066c-0.237,9.383-7.95,16.979-17.422,17.003v0.014h-0.082V53.07    c-9.47-0.025-17.185-7.621-17.422-17.003v-0.511c0.026-8.408,6.026-15.442,13.953-17.069c1.136-0.233,2.308-0.355,3.51-0.355    c1.204,0,2.376,0.123,3.512,0.355c7.926,1.627,13.926,8.661,13.952,17.069V36.066z"/>
		<path style="fill:#6699ff" d="M107.577,10.988c-0.532-1.056-1.458-1.858-2.579-2.234c-0.104-0.036-0.318-0.102-0.425-0.129    c-1.51-0.387-3.211,0.007-4.33,1.092c-1.12,1.082-1.698,2.641-1.362,4.162c5.853,26.565-9.904,55.955-37.463,69.884    c-16.145,8.143-34.043,10.182-50.394,5.74c-1.954-0.53-4.02,0.314-5.045,2.058c-1.025,1.745-0.754,3.96,0.66,5.409    c19.979,20.443,51.733,12.535,67.347,4.637C110.005,83.439,124.449,44.482,107.577,10.988z"/>
		<path style="fill:#6699ff" d="M84.686,2.342c-0.895-1.084-2.249-1.686-3.655-1.624c-13.035,0.569-26.203,4.3-38.078,10.79    C19.32,24.4,3.262,46.513,0,70.652c-0.191,1.413,0.298,2.829,1.317,3.818c1.02,0.99,2.449,1.44,3.853,1.212    c11.506-1.878,22.657-5.733,33.141-11.458C62.406,51.087,80.084,29.41,85.593,6.239C85.919,4.87,85.583,3.428,84.686,2.342z"/>
	</g>
</svg>