<?xml version="1.0" standalone="no"?>
<!DOCTYPE svg PUBLIC "-//W3C//DTD SVG 20010904//EN"
 "http://www.w3.org/TR/2001/REC-SVG-20010904/DTD/svg10.dtd">
<svg version="1.0" xmlns="http://www.w3.org/2000/svg"
 width="16.000000pt" height="16.000000pt" viewBox="0 0 16.000000 16.000000"
 preserveAspectRatio="xMidYMid meet">
<metadata>
Created by potrace 1.11, written by Peter Selinger 2001-2013
</metadata>
<g transform="translate(0.000000,16.000000) scale(0.003200,-0.003200)"
fill="#000000" stroke="none">
<path d="M0 2500 l0 -2500 2500 0 2500 0 0 2500 0 2500 -2500 0 -2500 0 0
-2500z m4511 1974 c23 -28 19 -46 -33 -148 -67 -133 -69 -136 -99 -172 -14
-17 -42 -60 -62 -97 -21 -36 -53 -83 -71 -104 -81 -91 -96 -109 -96 -120 0 -6
-13 -20 -30 -30 -16 -9 -30 -23 -30 -30 0 -7 -11 -15 -24 -19 -13 -3 -32 -21
-42 -39 -10 -19 -28 -36 -41 -40 -12 -3 -27 -14 -33 -25 -6 -11 -17 -20 -25
-20 -7 0 -16 -14 -20 -31 -4 -18 -15 -33 -25 -36 -17 -5 -34 -37 -30 -58 1 -5
-2 -7 -6 -2 -4 4 -16 -5 -27 -20 -13 -19 -17 -21 -12 -8 14 43 17 75 7 75 -13
0 -62 -47 -62 -59 0 -4 -17 -21 -38 -38 -20 -17 -46 -47 -57 -68 -11 -21 -27
-46 -36 -56 -10 -9 -20 -31 -24 -48 -4 -17 -11 -31 -16 -31 -6 0 -7 -9 -4 -20
4 -12 2 -20 -5 -20 -8 0 -11 -11 -8 -29 2 -17 1 -28 -4 -25 -4 3 -4 -5 1 -18
13 -36 0 -190 -18 -212 -6 -7 -13 -23 -15 -37 -3 -13 -5 -24 -6 -24 -3 0 -10
-49 -14 -104 -3 -29 -15 -85 -26 -125 -12 -39 -23 -75 -24 -81 -2 -5 -8 -30
-15 -54 -7 -23 -11 -45 -8 -47 7 -7 25 38 67 166 23 69 45 134 50 145 16 37
188 519 205 575 21 68 36 100 47 100 5 0 6 -6 1 -12 -10 -16 -11 -23 -16 -188
-5 -141 -17 -212 -43 -263 -24 -46 -74 -170 -74 -184 0 -7 -18 -51 -39 -98
-22 -47 -38 -85 -36 -85 3 0 -4 -15 -15 -32 -11 -18 -20 -41 -20 -50 0 -10 -9
-33 -19 -52 -11 -19 -17 -37 -14 -39 3 -3 -5 -20 -17 -36 -11 -17 -19 -35 -15
-40 3 -5 -3 -16 -12 -23 -10 -7 -19 -24 -21 -38 -1 -14 -7 -27 -12 -28 -6 -2
-8 -7 -5 -12 6 -10 -51 -121 -58 -114 -3 3 -4 -1 -4 -8 2 -17 -67 -163 -81
-171 -5 -4 2 24 15 61 14 37 27 76 29 87 9 43 59 232 69 260 7 20 6 20 -9 1
-9 -11 -16 -27 -16 -36 0 -9 -5 -21 -11 -27 -6 -6 -12 -17 -13 -24 -3 -15 -30
-81 -48 -116 -6 -13 -15 -23 -19 -23 -4 0 -10 -13 -14 -29 -9 -41 -49 -86 -66
-75 -8 5 -41 14 -74 21 -33 6 -72 15 -87 18 -22 6 -28 4 -28 -9 0 -11 -5 -14
-12 -10 -8 5 -9 2 -5 -10 6 -14 3 -17 -10 -12 -32 13 -211 25 -239 17 -16 -4
-114 -9 -219 -10 -104 -1 -208 -6 -230 -11 -22 -5 -88 -11 -147 -13 -122 -4
-126 -2 -110 69 5 22 10 73 11 114 1 41 4 91 6 110 14 124 23 517 14 630 -1
15 6 29 18 37 20 14 20 14 0 96 -11 45 -24 90 -29 100 -5 11 -8 20 -6 22 2 1
26 15 53 30 28 15 56 32 62 37 28 22 134 67 253 105 226 73 274 86 325 88 60
3 175 25 175 34 0 4 14 8 31 9 17 1 39 6 48 11 9 4 63 9 120 9 58 1 107 5 110
11 4 6 16 9 27 9 32 -3 147 67 211 128 32 31 68 63 81 71 38 26 26 34 -40 28
-63 -5 -68 -2 -16 9 15 3 30 15 33 26 3 11 15 20 26 20 10 0 19 7 19 15 0 10
14 17 40 21 22 4 40 12 40 18 0 23 61 101 82 107 14 3 22 12 20 21 -1 9 7 18
18 21 12 3 26 19 33 36 7 19 24 37 45 47 32 15 56 34 129 102 19 17 37 32 40
32 10 0 118 73 121 82 2 4 8 8 13 8 6 0 36 18 69 39 32 22 69 43 82 47 13 4
39 17 59 30 55 34 110 42 130 18z m-1616 -28 c66 -14 125 -28 130 -30 6 -1
-24 -6 -65 -10 -41 -4 -103 -13 -138 -21 -35 -7 -72 -11 -82 -8 -11 3 -27 -2
-35 -11 -16 -16 -45 -22 -45 -10 0 4 8 13 18 20 15 12 15 12 -6 7 -12 -3 -41
-1 -65 5 -41 11 -176 26 -227 26 -14 0 -34 -4 -44 -9 -14 -6 -17 -5 -12 3 5 9
-8 12 -46 12 -53 0 -89 13 -76 26 24 23 135 33 348 30 198 -3 239 -7 345 -30z
m-430 -73 c15 -5 15 -8 -6 -24 -24 -18 -23 -19 59 -19 45 0 82 -3 82 -8 0 -16
-136 -72 -174 -72 -28 0 -54 -10 -93 -36 -37 -24 -58 -33 -65 -26 -7 7 -3 12
10 17 12 3 24 15 27 26 4 10 11 19 16 19 5 0 9 4 9 9 0 10 -50 2 -67 -11 -8
-7 -26 -4 -52 8 -32 14 -39 22 -37 42 3 29 33 49 49 33 6 -6 41 -11 79 -11 63
0 69 2 90 30 22 30 41 36 73 23z m-830 -474 c0 -8 -10 -15 -22 -17 -25 -4 -30
7 -11 26 15 15 33 10 33 -9z m1830 -139 c3 -5 -25 -18 -62 -30 -70 -21 -223
-75 -258 -91 -64 -29 -852 -292 -970 -324 -33 -9 -94 -27 -135 -39 -41 -13
-76 -23 -78 -21 -1 1 14 10 35 20 21 9 92 44 159 76 66 33 130 61 142 64 12 2
28 7 35 12 6 4 18 8 25 9 7 2 34 12 60 24 104 49 151 70 159 70 4 0 35 13 68
29 74 36 254 107 295 116 16 4 30 11 30 16 0 5 8 9 19 9 10 0 24 6 30 14 15
18 70 25 258 34 83 4 155 10 159 15 10 10 22 9 29 -3z m1015 -945 c11 -55 22
-127 25 -160 6 -70 7 -299 1 -335 -2 -14 -7 -50 -10 -80 -9 -70 -15 -92 -26
-85 -5 3 -11 1 -15 -5 -3 -5 -1 -10 6 -10 10 0 10 -3 1 -12 -16 -16 -15 -31 1
-22 9 5 9 4 0 -6 -6 -7 -9 -18 -6 -26 5 -15 -15 -124 -27 -139 -4 -5 -11 -30
-15 -55 -4 -25 -11 -50 -17 -56 -5 -7 -11 -22 -13 -34 -2 -13 -12 -31 -21 -41
-10 -11 -14 -19 -9 -19 4 0 2 -7 -5 -15 -7 -8 -16 -15 -21 -15 -12 0 2 32 20
48 14 12 14 13 -1 8 -17 -5 -23 8 -19 42 2 10 -5 9 -28 -3 -28 -14 -35 -27
-34 -62 1 -7 -3 -10 -9 -7 -5 3 -8 13 -6 22 1 10 -1 22 -5 28 -4 7 0 17 8 24
11 9 15 9 15 1 0 -7 5 -9 10 -6 6 3 7 17 4 29 -5 23 -3 26 86 93 2 2 -1 8 -9
12 -10 6 -9 12 6 26 17 18 17 19 0 12 -28 -11 -32 20 -6 44 l24 20 -24 -7
c-16 -4 -21 -3 -17 5 4 7 -1 11 -13 11 -13 0 -21 -8 -23 -22 -2 -13 -15 -29
-30 -36 -16 -7 -28 -19 -28 -27 0 -19 -32 -85 -41 -85 -4 0 -9 -9 -12 -20 -3
-11 -10 -20 -16 -20 -14 0 -14 17 -1 25 22 14 10 51 -20 62 -16 6 -30 18 -30
27 0 9 -5 16 -11 16 -5 0 -7 5 -3 12 4 7 3 8 -4 4 -6 -4 -9 -13 -5 -21 3 -8 0
-15 -5 -15 -21 0 -22 18 -3 42 19 24 19 24 -2 38 -12 8 -25 13 -28 13 -5 -2
-5 18 0 50 0 5 7 5 14 0 6 -4 4 5 -6 21 -18 26 -18 29 -1 47 9 10 23 19 29 19
14 0 27 -63 14 -68 -14 -6 2 -32 20 -32 10 0 21 -3 25 -7 4 -5 11 -8 14 -9 23
-3 45 -20 53 -41 5 -14 15 -23 22 -21 18 6 20 40 3 63 -12 17 -16 18 -32 5
-13 -12 -18 -12 -22 -2 -2 7 -9 18 -16 25 -15 15 -27 55 -17 61 4 3 13 1 21
-5 11 -6 12 -9 2 -9 -7 0 -10 -5 -6 -12 5 -8 10 -7 18 4 7 10 27 14 59 14 38
-1 47 2 47 16 0 9 5 20 10 23 6 3 10 15 10 26 0 24 29 37 41 18 13 -21 28 6
31 56 3 68 3 74 10 80 3 4 2 20 -2 36 -7 23 -5 31 6 36 10 4 12 12 8 27 -4 11
-7 31 -6 44 2 19 -2 22 -26 20 -25 -3 -27 0 -28 37 -1 22 5 58 13 80 21 60 63
241 63 273 0 33 14 52 18 25 1 -10 11 -63 22 -118z m-73 -371 c-3 -3 -12 -4
-19 -1 -8 3 -5 6 6 6 11 1 17 -2 13 -5z m-2617 -361 c2 -87 3 -194 4 -238 l1
-80 242 -5 c133 -3 244 -8 248 -11 3 -4 -29 -9 -72 -13 -104 -9 -103 -8 -103
-16 0 -8 -86 -29 -140 -35 -19 -2 -78 -10 -130 -19 -113 -19 -100 -19 -125 0
-17 12 -20 28 -21 92 -1 42 2 82 7 88 6 7 12 33 14 59 3 26 10 55 15 65 5 9 7
20 5 22 -3 3 2 25 11 49 9 24 17 58 19 74 1 17 4 31 5 33 1 1 2 19 2 40 1 34
5 52 12 52 2 0 4 -71 6 -157z m2363 97 c3 -12 0 -20 -8 -20 -15 0 -28 27 -19
41 8 13 21 3 27 -21z m-595 -407 c-4 -22 -38 -30 -38 -10 0 14 13 24 33 26 5
1 7 -7 5 -16z m662 -13 c0 -5 -5 -10 -11 -10 -5 0 -7 5 -4 10 3 6 8 10 11 10
2 0 4 -4 4 -10z m-640 -75 c0 -23 -2 -24 -20 -15 -23 12 -26 26 -7 33 23 10
27 7 27 -18z m564 -20 c-7 -17 -20 -20 -28 -6 -7 10 3 21 20 21 8 0 11 -6 8
-15z m-129 -101 c16 -24 15 -27 -10 -60 -15 -20 -35 -34 -47 -34 -21 0 -21 1
-3 14 12 9 16 20 12 36 -5 18 16 70 28 70 1 0 10 -12 20 -26z m20 -114 c-3 -5
-11 -10 -16 -10 -6 0 -7 5 -4 10 3 6 11 10 16 10 6 0 7 -4 4 -10z m90 -50 c3
-5 1 -10 -4 -10 -6 0 -11 5 -11 10 0 6 2 10 4 10 3 0 8 -4 11 -10z"/>
<path d="M2100 3160 c0 -5 5 -10 10 -10 6 0 10 5 10 10 0 6 -4 10 -10 10 -5 0
-10 -4 -10 -10z"/>
<path d="M3416 2424 c-9 -24 -7 -28 9 -14 17 14 20 30 6 30 -5 0 -12 -7 -15
-16z"/>
<path d="M4075 2140 c-3 -6 1 -7 9 -4 18 7 21 14 7 14 -6 0 -13 -4 -16 -10z"/>
<path d="M4360 2124 c0 -14 4 -23 9 -19 11 6 10 45 -1 45 -4 0 -8 -12 -8 -26z"/>
<path d="M4260 2110 c0 -5 5 -10 10 -10 6 0 10 5 10 10 0 6 -4 10 -10 10 -5 0
-10 -4 -10 -10z"/>
<path d="M4258 2083 c7 -3 16 -2 19 1 4 3 -2 6 -13 5 -11 0 -14 -3 -6 -6z"/>
<path d="M4167 1953 c-12 -11 -8 -23 8 -23 8 0 15 7 15 15 0 16 -12 20 -23 8z"/>
</g>
</svg>
