<svg id="sticker_10x10" data-name="sticker 10x10" xmlns="http://www.w3.org/2000/svg" viewBox="0 0 294.8 294.8">
    <defs>
        <style>.cls-2{fill:#A2D400;opacity:.9}</style>
    </defs>
    <title>mk-croped</title>
    <path class="cls-2" d="M155.76,78c10.76,20.75,32.83,64.13,36.47,72-2.84-8.28-18.31-55.25-29.8-89.69Z"
          transform="translate(-2.51 -3.36)"/>
    <path class="cls-2"
          d="M117.53,137.37l.43-.07a5.21,5.21,0,0,1-.54-2.48,10.52,10.52,0,0,1,.89-2.67c-.93,1.77-7,12.9-8.3,15.42.08-.07,2.52-1.15,3.29-1.69-.55-.92.33-4.19,1.58-6.59A4,4,0,0,1,117.53,137.37Z"
          transform="translate(-2.51 -3.36)"/>
    <path class="cls-2" d="M183.28,134.72a1.92,1.92,0,0,1-.2.63s3.24,6.49,3.15,8.25c0,.67-.09,1.05-.06,1.5l3.31,2.2Z"
          transform="translate(-2.51 -3.36)"/>
    <path class="cls-2"
          d="M116.75,168.26c.24-.06.52-.54.52-.54a38.71,38.71,0,0,1-2.64-4,14.09,14.09,0,0,1-1.28-6l-3.68-3.36,6.89,14A.49.49,0,0,1,116.75,168.26Z"
          transform="translate(-2.51 -3.36)"/>
    <path class="cls-2"
          d="M183.36,168c-.23-.06-.51-.54-.51-.54a37.46,37.46,0,0,0,2.63-4,13.93,13.93,0,0,0,1.28-6l3.68-3.37c-1.22,2.49-3.71,7.57-6.89,14A.4.4,0,0,0,183.36,168Z"
          transform="translate(-2.51 -3.36)"/>
    <path class="cls-2"
          d="M116.08,183.85a3.26,3.26,0,0,1,.73,3.23c-.45-.37-.79-.51-.92-.77A2.51,2.51,0,0,1,116.08,183.85Z"
          transform="translate(-2.51 -3.36)"/>
    <path class="cls-2" d="M182.92,185.87c.4-.62.85-3.13.14-2.89C181.39,183.52,182.59,186.37,182.92,185.87Z"
          transform="translate(-2.51 -3.36)"/>
    <path class="cls-2"
          d="M234.25,154.81a15,15,0,0,1-6.14.6c-3-.51-4.68-1.56-3.94-1.36,2.1.57,4.44.47,8.25-1.49a10.57,10.57,0,0,0,2.37-1.69.63.63,0,0,0,.19-.47c0-.66,0-1.32-.07-2a.58.58,0,0,0-.8-.51,14.24,14.24,0,0,1-5.42,1.26c-3.05-.05-4.86-.85-4.1-.76,2.16.26,4.46-.19,7.94-2.7a10,10,0,0,0,1.91-1.8.68.68,0,0,0,.14-.46c-.09-.95-.18-1.84-.27-2.64a.58.58,0,0,0-.87-.43,14.34,14.34,0,0,1-5.16,2c-3,.39-4.94-.12-4.17-.15,2.18-.07,4.39-.85,7.46-3.85a10.6,10.6,0,0,0,1.9-2.54.21.21,0,0,1,0-.06,14.25,14.25,0,0,0-.55-3.08.59.59,0,0,0-.92-.34,14.81,14.81,0,0,1-5.34,2.68c-3,.62-4.93.25-4.16.17,2.16-.23,4.31-1.19,7.14-4.41a10.85,10.85,0,0,0,1.79-2.86.58.58,0,0,0,0-.39c-.23-.75-.49-1.53-.76-2.32a.59.59,0,0,0-.94-.27,14.7,14.7,0,0,1-5.09,3c-2.94.82-4.91.57-4.15.44,2.15-.37,4.22-1.46,6.85-4.87a10.92,10.92,0,0,0,1.54-2.81.64.64,0,0,0,0-.43c-.26-.68-.54-1.36-.81-2a.59.59,0,0,0-.94-.2,14.67,14.67,0,0,1-4.76,3.16c-2.88,1-4.87.88-4.12.7,2.13-.51,4.13-1.73,6.54-5.3a10.32,10.32,0,0,0,1.22-2.5.66.66,0,0,0,0-.48q-.47-.92-.93-1.74a.58.58,0,0,0-.92-.12,14.09,14.09,0,0,1-4.24,3.13c-2.81,1.19-4.8,1.2-4.06,1,2.08-.64,4-2,6.19-5.72a10.33,10.33,0,0,0,.71-1.51.54.54,0,0,0-.05-.48l-1.12-1.7a.59.59,0,0,0-.91-.08,13,13,0,0,1-3.38,2.68c-2.73,1.37-4.72,1.51-4,1.24,2.05-.79,3.88-2.26,5.81-6.13.1-.19.18-.38.26-.57a.55.55,0,0,0-.06-.53l-1.1-1.6a.59.59,0,0,0-.92-.06,12.08,12.08,0,0,1-2.68,2.32c-2.64,1.57-4.62,1.84-3.91,1.52,1.95-.91,3.66-2.48,5.3-6.34l-.07-.62-1-1.35a.57.57,0,0,0-.89,0,11.39,11.39,0,0,1-2.12,2c-2.52,1.76-4.47,2.19-3.79,1.81,1.77-1,3.28-2.56,4.57-6a.61.61,0,0,0-.12-.62q-.62-.68-1.17-1.2l-.24-.27a11.29,11.29,0,0,1-1.91,2.16c-2.36,2-4.27,2.57-3.63,2.14,1.56-1.06,2.85-2.59,3.82-5.66a.56.56,0,0,0-.14-.58L208.5,90a.59.59,0,0,0-.89.1,9.21,9.21,0,0,1-1,1.18c-2.15,2.22-4,3-3.4,2.5a9.35,9.35,0,0,0,3.07-5.34.58.58,0,0,0-.19-.58l-.34-.3c-.16.28-.33.54-.5.78-1.84,2.49-3.56,3.52-3,2.94a8.78,8.78,0,0,0,2.16-4.53.59.59,0,0,0-.21-.56c-2.64-2.25-5-4.09-5.49-4.49-.32-.25-2.51-1.73-4.31-2.86a.58.58,0,0,0-.77.85,57.46,57.46,0,0,1,3.54,5,49.76,49.76,0,0,1,3.48,6.55c2.89,6.09,5.09,17.12,5.19,22.17,0,1.24,0,2.48,0,3.73,0,.74,0,1.49-.12,2.23s-2,18.09-10.17,29c-.23.41-2.6,2.83-3.28,3.94l-.07.18c-4,15.77-4.87,18.27-5.76,22.91,0,0,1.06.78,1.16,1.69a.71.71,0,0,1-.43.65c-3.2,2-3.42,3.26-3.43,3.36s0,.66,1.7,2.28c.33.32,1.53,0,1.45.34a9.36,9.36,0,0,1-3.13,3.25c-.09.73,0,1.23-.09,2a4,4,0,0,0,1.74,1.35c1.11.22,1.34.28,1.24.68-.2.76.32,2.05.16,2.56a2.43,2.43,0,0,1-1.15,1.21c-1.48,1.1-1.72.22-1.09-.13,2.39-1.31.6-2.67-.81-2.17a2.65,2.65,0,0,0-1.16,1.38,6.74,6.74,0,0,0-.6,2.28,30.09,30.09,0,0,0,.24,4.69,9.89,9.89,0,0,0,1.63,4.33,18.11,18.11,0,0,0,1.46,1.82l.6.93c.91.42,1,.09,1.07-.66a21.18,21.18,0,0,1-1.92-5.47c0-.42-.07-1.45-.05-2.38.08-1.6.38-2.4.37-1.85a14.68,14.68,0,0,0,.34,2.25,8.66,8.66,0,0,0,.39,1.21,11.92,11.92,0,0,0,2.84,4.26,10.61,10.61,0,0,0,2.24,1.87.6.6,0,0,0,.72-.08c.06-.06.11-.12.17-.17a.58.58,0,0,0,0-.76,15.59,15.59,0,0,1-2.92-5.86c-.59-3-.18-5-.11-4.22.2,2.2,1.13,4.38,4.33,7.29.19.17.38.33.58.48l.21-.31c.34-.44.7-.86,1.06-1.28a.59.59,0,0,0,0-.73,12.3,12.3,0,0,1-1.69-3.33c-.87-2.95-.65-4.95-.51-4.18.36,1.88,1.26,3.7,3.77,5.85a.59.59,0,0,0,.77,0c.33-.28.66-.56,1-.83l.59-.44a.59.59,0,0,0,.12-.82,10.7,10.7,0,0,1-1.26-2.22c-1.13-2.86-1.1-4.86-.89-4.12.53,1.85,1.59,3.58,4.29,5.49l.22-.16,2.52-.84a.58.58,0,0,0,.24-1,12.29,12.29,0,0,1-1.9-2.59c-1.38-2.74-1.53-4.74-1.25-4,.79,2,2.27,3.88,6.12,5.79.17.09.35.16.52.23a.56.56,0,0,0,.42,0l2.07-.83a.52.52,0,0,1,.18,0l1.79-.06a16.1,16.1,0,0,1-5.46-4.75c-1.63-2.6-2-4.57-1.61-3.87,1,2,2.61,3.65,6.62,5.19a12.76,12.76,0,0,0,6.56.49.58.58,0,0,0,.1-1.12,17.1,17.1,0,0,1-7.45-4.81c-1.87-2.42-2.39-4.35-2-3.69,1.15,1.85,3,3.37,7.08,4.52a13.15,13.15,0,0,0,6.89-.23.58.58,0,0,0,0-1.13,17.21,17.21,0,0,1-8-4c-2.1-2.21-2.82-4.07-2.34-3.46,1.34,1.73,3.28,3.05,7.51,3.76a12.61,12.61,0,0,0,6.25-.73.59.59,0,0,0-.11-1.13,16.66,16.66,0,0,1-7.7-3c-2.34-2-3.26-3.72-2.72-3.17,1.52,1.56,3.6,2.66,7.88,2.9a11.59,11.59,0,0,0,5-.9.59.59,0,0,0-.16-1.13,15.77,15.77,0,0,1-6.77-2c-2.56-1.67-3.67-3.31-3.07-2.83,1.69,1.37,3.88,2.21,8.16,1.94a11.81,11.81,0,0,0,4.86-1.52l-.34-1.2a15.73,15.73,0,0,1-6.93-1.13c-2.75-1.32-4.07-2.8-3.41-2.4,1.86,1.14,4.14,1.69,8.34.87a11.92,11.92,0,0,0,4.87-2.32.55.55,0,0,0,.23-.42,1.23,1.23,0,0,0,0-.19.58.58,0,0,0-.68-.63,16,16,0,0,1-7.28-.11c-2.9-.94-4.41-2.23-3.7-1.92,2,.87,4.32,1.11,8.37-.28a10.9,10.9,0,0,0,3.38-1.94.59.59,0,0,0,.22-.44c0-.39,0-.78,0-1.17A.58.58,0,0,0,234.25,154.81Z"
          transform="translate(-2.51 -3.36)"/>
    <path class="cls-2"
          d="M118.65,195.94c-.23-.64-1.09-3-3.48-1.25a.89.89,0,0,0-.25,1.16c.14.2.17.51.39.62.81.43.29.62-.79.08s-.47-2.88-1-3.55c.44-1.23,1.61-1.51,2.1-2.68a1.21,1.21,0,0,0,.08-.46V188a14.88,14.88,0,0,1-2.22-3.47c-.18-.66.32-.52,1.06-1.38a9.24,9.24,0,0,0,1-2.1c.44-.18-3.19-1.66-3.39-2.45-.34-1.34.69-2.12.62-3.11s-5.49-22.73-5.43-23c-.31-.6-6.8-5.53-11.3-22.26a63.46,63.46,0,0,1-1.84-11.29c0-2.35.17-8.26.32-9.4A56.59,56.59,0,0,1,97.21,98c.88-2.54,1.58-4.49,2-5.5,2.26-5.23,4.46-9.61,8.19-13.36q1-1,2-1.8c5.57-4.76-4.32,1.32-7.37,3.2-.36.23-.68.52-1,.75-1.29.82-3.48,2.48-5.88,4.41a9.37,9.37,0,0,0,2.33,5.77c.53.58-1.2-.45-3-2.94A9.68,9.68,0,0,1,93.48,87l-.4.34c.63,3.55,1.8,5.33,3.33,6.62.6.51-1.24-.28-3.39-2.5a11.2,11.2,0,0,1-1.78-2.56c-.46.39-.9.78-1.34,1.17,1,4,2.43,5.86,4.21,7.07.64.43-1.27-.16-3.63-2.14a12.86,12.86,0,0,1-2.55-3.16c-.5.47-1,.93-1.43,1.36.07.28.14.57.23.85,1.36,4.12,3,5.85,4.89,6.93.67.38-1.28,0-3.79-1.81a14.22,14.22,0,0,1-3.42-3.82c-.39.4-.85.92-1.36,1.54a9.55,9.55,0,0,0,.59,2c1.67,4,3.4,5.6,5.39,6.53.7.32-1.28,0-3.91-1.52a15,15,0,0,1-4.23-4.29c-.41.54-.82,1.11-1.25,1.69a10.55,10.55,0,0,0,1,3c1.93,3.87,3.77,5.34,5.81,6.13.72.27-1.26.13-4-1.24a15.84,15.84,0,0,1-5.06-4.72c-.36.53-.73,1.06-1.07,1.58a11.21,11.21,0,0,0,1.39,4.23c2.18,3.72,4.1,5.08,6.19,5.72.74.23-1.25.22-4.07-1a16.57,16.57,0,0,1-6-5.17c-.3.49-.57.94-.8,1.34a12.41,12.41,0,0,0,1.88,5.54c2.41,3.57,4.42,4.79,6.54,5.3.75.18-1.23.3-4.12-.7a17,17,0,0,1-6.65-5.22c-.23.51-.44,1-.65,1.53a12.74,12.74,0,0,0,2.32,6c2.63,3.41,4.71,4.5,6.86,4.87.76.13-1.21.38-4.15-.44a17.09,17.09,0,0,1-7.13-4.94c-.21.62-.41,1.23-.61,1.83a12.91,12.91,0,0,0,2.74,6c2.84,3.22,5,4.18,7.15,4.41.76.08-1.19.45-4.17-.17a16.9,16.9,0,0,1-7.38-4.43c-.22.88-.42,1.72-.58,2.5a12.35,12.35,0,0,0,3,5.27c3.07,3,5.27,3.78,7.45,3.85.77,0-1.15.54-4.17.14a16.5,16.5,0,0,1-7.2-3.45c-.11,1-.21,2-.29,3a11.59,11.59,0,0,0,3.24,3.75c3.48,2.51,5.78,3,7.94,2.7.77-.09-1,.71-4.09.76a16.28,16.28,0,0,1-7.43-2.23c0,.81-.07,1.59-.09,2.35a11.8,11.8,0,0,0,3.78,3.25c3.81,2,6.15,2.06,8.25,1.49.75-.2-.93.85-3.94,1.36a16.67,16.67,0,0,1-8.13-1.28h0c0,.51,0,1,0,1.49a12.28,12.28,0,0,0,4.84,3.31c4,1.39,6.38,1.15,8.38.28.7-.31-.81,1-3.71,1.91a17.26,17.26,0,0,1-9.21-.35l-.17.3a13.8,13.8,0,0,0,6.54,3.73c4.21.82,6.49.26,8.34-.87.66-.41-.66,1.08-3.4,2.4a17.4,17.4,0,0,1-9.6.84,14.06,14.06,0,0,0,7.19,3c4.27.27,6.46-.57,8.16-1.94.6-.48-.52,1.16-3.07,2.82a17.25,17.25,0,0,1-9.18,2.08,13.63,13.63,0,0,0,7.2,2c4.28-.24,6.35-1.34,7.87-2.9.54-.55-.37,1.21-2.71,3.17-2,1.68-6.23,3.21-10.15,3.22,2.2,1,5.28,2.23,8.59,1.67,4.23-.71,6.17-2,7.51-3.76.47-.61-.24,1.25-2.35,3.46-1.93,2-6.44,4.18-10.59,4.4,2.3.72,5.84,2,9.43,1,4.14-1.15,5.93-2.67,7.09-4.52.41-.66-.11,1.27-2,3.69A16.55,16.55,0,0,1,82,189.13l.06.34,4.89.13,1,.41c3.83-1.52,5.42-3.17,6.38-5.09.34-.7,0,1.27-1.62,3.87a11.44,11.44,0,0,1-2.06,2.33l3,1.22c.3.12.65.29,1,.47a9,9,0,0,0,3.66-4.37c.28-.73.14,1.27-1.25,4a9.35,9.35,0,0,1-.8,1.27c.31.2.59.39.82.57.76.59,1.49,1.19,2.24,1.79a8.92,8.92,0,0,0,3.11-4.58c.21-.74.25,1.26-.88,4.12a10.37,10.37,0,0,1-.84,1.6,4.16,4.16,0,0,1,1.35,1.69c.24,1,.14,1.29.29,1.38,3-2.4,3.81-4.15,4.19-6.2.15-.77.36,1.23-.51,4.18a13.81,13.81,0,0,1-2.41,4.32c-.14.24.08.51.35.8l.86,1.11a10.1,10.1,0,0,0,1.4-1.06c3.21-2.91,4.13-5.09,4.34-7.29.07-.78.47,1.19-.12,4.22a16.23,16.23,0,0,1-3.57,6.67c.22.24.45.48.69.7a10.79,10.79,0,0,0,3.13-2.38c2.89-3.23,3.59-5.5,3.57-7.71,0-.53.36,3.78.32,4.23a16.32,16.32,0,0,1-2.75,6.82l.46.44a17.69,17.69,0,0,0,2.48-2.49c1.91-2.08,2.78-7.09,2.65-8.1-.07-.53.91,4.24.26,7-.37,1.59-.52,3.23-1,4.8l.1,0c.32.1,1.94-2.8,2.39-8.36A21.71,21.71,0,0,0,118.65,195.94Z"
          transform="translate(-2.51 -3.36)"/>
    <path class="cls-2" d="M149.89,36.55l3.42-2.69c-2-6.09-3.32-9.84-3.42-10-.14.25-1.45,4-3.54,10.1Z"
          transform="translate(-2.51 -3.36)"/>
    <path class="cls-2"
          d="M151.5,75.09l-1.61-2.86-1.4,2.52c.26,3.54,1.95-.6,2.66,1.77C151.63,76.25,151.63,75.68,151.5,75.09Z"
          transform="translate(-2.51 -3.36)"/>
    <path class="cls-2"
          d="M150.31,86.63c-.2.33-.75.17-.65-.23a2.81,2.81,0,0,0,.21-1.14c-.08-.28-.47-.53-.69-.71h0a.35.35,0,0,1-.2.1l-.39.2a5.33,5.33,0,0,1-.79.4l2.23,6,1.66-4.67a6.28,6.28,0,0,1-.47-.58A1.36,1.36,0,0,0,150.31,86.63Z"
          transform="translate(-2.51 -3.36)"/>
    <path class="cls-2"
          d="M152.86,77.5l-.38.26c0,.07-.06.14-.09.23a.35.35,0,0,1-.45.22,3.11,3.11,0,0,0-.93,1.68.35.35,0,0,1-.63.12,7.69,7.69,0,0,0-1.28-1.21l-.14.1a.36.36,0,0,1-.42,0l-.29-.31-.06,0a1.83,1.83,0,0,1-.13-.16,9,9,0,0,1-.79-1,.28.28,0,0,1-.05-.21l-.08,0L146,79.29,147,82.44c.78-.4,1.35-1.42,2.19-1.57a2,2,0,0,1,1.44.67,10.5,10.5,0,0,1,1.46,2.7c.09.12.17.24.25.37L154,79.45Z"
          transform="translate(-2.51 -3.36)"/>
    <path class="cls-2"
          d="M149.83,240.69l-.15-.11c-.77-.59-12.94-25.73-39.44-81.52l-.66-1.39c9,27.38,36.93,110.23,40.3,119.56,1.51-4.41,8.3-25.12,15.46-46.91,9-27.47,19.62-58.08,24.14-71.54-9.22,19.9-38.42,81.49-39.48,81.85Z"
          transform="translate(-2.51 -3.36)"/>
    <path class="cls-2" d="M241.92,110.79l0,0-.08-.07Z" transform="translate(-2.51 -3.36)"/>
    <path class="cls-2"
          d="M140.35,153c-.14-.74,1-.94,1.27-1,.56-.15-1.42-.86-2-.83C136.86,151.23,140.41,153.3,140.35,153Z"
          transform="translate(-2.51 -3.36)"/>
    <path class="cls-2"
          d="M159.11,153.15c.14-.75-.89-1.13-1.21-1.23-.56-.15,1.34-.65,1.94-.62C162.57,151.45,159,153.48,159.11,153.15Z"
          transform="translate(-2.51 -3.36)"/>
    <path class="cls-2"
          d="M150.9,142.12c-.75-.12-.93,1.49-1,1.81-.14.57-.86-1.36-.84-2C149.11,139.23,151.23,142.17,150.9,142.12Z"
          transform="translate(-2.51 -3.36)"/>
    <path class="cls-2"
          d="M150.79,161.07c-.59.47-1.3-.29-1.54-.53-.39-.42-.15,1.33.15,1.84C150.8,164.75,151.06,160.86,150.79,161.07Z"
          transform="translate(-2.51 -3.36)"/>
    <path class="cls-2"
          d="M142.41,119.65c.24.1-.48-.32-.57-.32-.91-.09-2.92,1.92-1.87,4.29.14,0,.9-.16,1.09,0a19.67,19.67,0,0,1,0,2.43c.29-.58.42-.71.51-.91.06,0,.65-4.51.65-4.51s-.56.66-.91.19A.86.86,0,0,1,142.41,119.65Zm-1,2.24c.19.27-.25,1.59-1,1.11s.36-2.2.36-2.2A9,9,0,0,0,141.39,121.89Z"
          transform="translate(-2.51 -3.36)"/>
    <path class="cls-2"
          d="M159.74,123.63c1-2.37-1-4.38-1.87-4.3-.09,0-.81.43-.58.33a.85.85,0,0,1,1.1,1.15c-.34.47-.9-.19-.9-.19s.59,4.55.65,4.51c.09.2.22.33.51.9a19.67,19.67,0,0,1,0-2.43C158.84,123.47,159.6,123.65,159.74,123.63Zm-1.42-1.73a9,9,0,0,0,.65-1.09s1,1.81.35,2.2S158.13,122.17,158.32,121.9Z"
          transform="translate(-2.51 -3.36)"/>
    <path class="cls-2"
          d="M121.57,161.8c0-.14-.16-.91,0-1.1a19.67,19.67,0,0,1,2.43,0c-.57-.29-.71-.42-.91-.51,0-.06-4.51-.64-4.51-.64s.67.55.19.9a.86.86,0,0,1-1.15-1.1c.11-.24-.31.49-.32.58C117.19,160.83,119.2,162.84,121.57,161.8Zm-1.73-1.43c.27-.19,1.58.25,1.11,1s-2.21-.35-2.21-.35A9.65,9.65,0,0,0,119.84,160.37Z"
          transform="translate(-2.51 -3.36)"/>
    <path class="cls-2"
          d="M117.28,143.89c0,.09.43.82.32.58a.86.86,0,0,1,1.15-1.1c.48.34-.19.9-.19.9s4.55-.58,4.51-.64c.2-.09.34-.23.91-.51a21.86,21.86,0,0,1-2.43,0c-.13-.19,0-1,0-1.1C119.21,141,117.2,143,117.28,143.89Zm2.57-.44a9.65,9.65,0,0,0-1.1-.66s1.81-1,2.21-.35S120.12,143.63,119.85,143.45Z"
          transform="translate(-2.51 -3.36)"/>
    <path class="cls-2"
          d="M182.45,160.05c0-.09-.43-.82-.32-.58a.86.86,0,0,1-1.16,1.09c-.47-.34.2-.9.2-.9s-4.56.57-4.52.63c-.19.09-.33.22-.9.51a21.85,21.85,0,0,1,2.43,0c.13.2-.05,1,0,1.1C180.51,163,182.53,161,182.45,160.05Zm-2.57.43a10.14,10.14,0,0,0,1.09.66s-1.81,1-2.2.35S179.61,160.29,179.88,160.48Z"
          transform="translate(-2.51 -3.36)"/>
    <path class="cls-2"
          d="M178.21,142.12c0,.14.16.91,0,1.1a19.58,19.58,0,0,1-2.43,0c.57.29.71.42.91.51,0,.06,4.51.67,4.51.67s-.66-.56-.19-.91a.86.86,0,0,1,1.15,1.11c-.11.24.31-.49.32-.58C182.59,143.11,180.58,141.09,178.21,142.12Zm1.73,1.44c-.28.18-1.59-.26-1.11-1s2.2.37,2.2.37A9,9,0,0,0,179.94,143.56Z"
          transform="translate(-2.51 -3.36)"/>
    <path class="cls-2"
          d="M151.1,153.08c.13-.13.21-.16.42,0a18,18,0,0,0,4.38,2.58c1.69.46,2.73.17,2.6-.24s-.52-.27-1.1-.65c-1-.65-1-1.18-1-1.18l1,.32s-.08-.1-.13-.18a.64.64,0,0,1-.17-.35c0-.1.35-.14.45-.24l-.6-.32c-.78-.39-1.44.55-3.13-.87,1.69-1.4,2.35-.46,3.13-.85l.6-.31c-.1-.1-.45-.15-.45-.25a.65.65,0,0,1,.17-.34l.14-.18-1,.31s0-.53,1-1.17c.59-.38.93-.12,1.11-.65s-.91-.7-2.6-.26a18.17,18.17,0,0,0-4.4,2.55c-.36.21-.67-.27-.52-.48a18.42,18.42,0,0,0,2.56-4.39c.45-1.69.16-2.73-.25-2.6s-.27.52-.65,1.1c-.65,1-1.18,1-1.18,1l.32-1-.18.13a.64.64,0,0,1-.35.17c-.09,0-.14-.35-.24-.45l-.32.6c-.39.78.55,1.44-.85,3.12-1.42-1.69-.47-2.35-.87-3.13-.2-.4-.29-.57-.31-.6s-.15.45-.24.45a.64.64,0,0,1-.35-.17l-.18-.13.32,1s-.53,0-1.18-1c-.38-.59-.12-.93-.65-1.11s-.7.91-.25,2.6a18.42,18.42,0,0,0,2.56,4.39c.14.21-.17.69-.48.49a18.22,18.22,0,0,0-4.39-2.57c-1.69-.45-2.73-.16-2.59.25s.52.27,1.1.65c1,.65,1,1.18,1,1.18l-1-.32.14.18a.62.62,0,0,1,.16.35c0,.1-.35.14-.44.24a3.6,3.6,0,0,0,.6.32c.78.39,1.43-.55,3.12.85-1.69,1.42-2.35.47-3.13.87a3.6,3.6,0,0,0-.6.32c.09.09.44.14.44.24a.6.6,0,0,1-.16.34l-.14.18,1-.31s0,.53-1,1.18c-.58.38-.93.12-1.1.64s.9.71,2.6.25a18.09,18.09,0,0,0,4.39-2.56c.21-.14.8.08.52.48a18.34,18.34,0,0,0-2.58,4.38c-.46,1.69-.17,2.73.24,2.6s.27-.52.65-1.1c.65-1,1.19-1,1.19-1l-.33,1,.18-.13a.58.58,0,0,1,.35-.17c.1,0,.14.35.24.45a5.11,5.11,0,0,0,.32-.6c.4-.78-.55-1.44.88-3.13,1.39,1.69.45,2.35.84,3.13a5.11,5.11,0,0,0,.32.6c.09-.1.14-.45.24-.45a.61.61,0,0,1,.34.17l.18.14-.31-1s.53,0,1.18,1c.37.58.11.93.64,1.11s.71-.91.26-2.6a18.17,18.17,0,0,0-2.55-4.4C150.9,153.32,151.1,153.08,151.1,153.08Z"
          transform="translate(-2.51 -3.36)"/>
    <path class="cls-2"
          d="M182.84,144.63l.18.07c.17.06.79.35.95.44l.21.12a2.2,2.2,0,0,0,.48-1.4h0a2.81,2.81,0,0,0-1-2.34,1,1,0,0,1,.06-1.09,1.18,1.18,0,0,0-.34-1.36,1.9,1.9,0,0,1-.18,1.16,5.78,5.78,0,0,0-.39.55l0,0a7.51,7.51,0,0,0-7.78.42l-1.68,1.25a11.57,11.57,0,0,0-.73-1.18c-.47-.59-1.09-.57-.43-1.1a5.46,5.46,0,0,1,3.63-1.31,13.45,13.45,0,0,0,1.91-.38c.71-.09,1.06-.43,1.36.39,0-.08.45-.51-.29-.95a1.52,1.52,0,0,0-.93-.09,25.12,25.12,0,0,1-3,.41,3.63,3.63,0,0,0-2.15.66l-.29.22c-.39.29-.79.58-1.2.85-.07,0-.18,0-.3-.06l-.12,0-.11.16a.87.87,0,0,1-.29.36l-.84.51a4.11,4.11,0,0,1-.53.25,3.43,3.43,0,0,0-1.57-.75,3.08,3.08,0,0,0,1-2c-.17.15-1.68,2.12-2.95,1.93,0,0,2.18-2,2.82-2.71.34-.37.45-1.34.7-1.05a1.48,1.48,0,0,1,.1,1.34c-.25.66.28.24.62-.33a2.45,2.45,0,0,0,.25-.93c1,.77,1.41-.17,2.15-.8l.06,0,.61-.52a10.7,10.7,0,0,1,1.93-1.15,4.6,4.6,0,0,1,4-.61.85.85,0,0,1,.27.27,2,2,0,0,0,.21.26l0,.27-.62-.19a3.72,3.72,0,0,0-2.55.33,2.87,2.87,0,0,0-.54.45,4.14,4.14,0,0,1,2.7.15,2.07,2.07,0,0,1,.48.84c.1.11.43.2.76-.5.41-.87,1.27-.18.9.58.86.57,1-1.3,1-1.3-.95-1.37-1.53-2-3.45-2.14,0,0-.22-2.35-1.88-1.81a2.3,2.3,0,0,1-1.68.89,8.61,8.61,0,0,0-2.33.65,1.26,1.26,0,0,1,.27-.79,2.27,2.27,0,0,1,.7-.46,3.91,3.91,0,0,0,1.84-.34s-1.42-.53-1-1.27c.15-.3.69-.25,1.22-.2a.65.65,0,0,1,.44.27,1.39,1.39,0,0,1,.17.44.94.94,0,0,0,0,.16l1.86-.84a10.29,10.29,0,0,0-1.07-.59,9.2,9.2,0,0,0-2.17-.41,2,2,0,0,0-.67.09,1.25,1.25,0,0,0,.06-.51,11.63,11.63,0,0,0-.45-2.37c-.06-.22-.53-1-.58-1.07l-.85,1.86.16,0a1.33,1.33,0,0,1,.43.17.66.66,0,0,1,.28.45c0,.52.09,1.06-.21,1.21-.74.37-1.26-1.06-1.26-1.06a3.81,3.81,0,0,0-.35,1.84,2.18,2.18,0,0,1-.47.7,1.18,1.18,0,0,1-.79.27,8.63,8.63,0,0,0,.67-2.33,2.34,2.34,0,0,1,.88-1.68c.55-1.65-1.79-1.88-1.79-1.88-.11-1.92-.77-2.5-2.13-3.46,0,0-1.87.1-1.3,1,.75-.37,1.44.49.57.89-.7.33-.61.66-.5.76a2.12,2.12,0,0,1,.84.49,4.16,4.16,0,0,1,.14,2.7,2.87,2.87,0,0,0,.45-.54,3.78,3.78,0,0,0,.34-2.55l-.19-.61.27,0,.26.21c.13.1.23.17.26.27a4.57,4.57,0,0,1-.61,4,12,12,0,0,1-1.16,1.93c-.17.2-.35.4-.52.61l0,.05c-.62.75-1.57,1.13-.81,2.15a2.64,2.64,0,0,0-.92.25c-.58.33-1,.87-.34.62a1.51,1.51,0,0,1,1.34.1c.29.26-.68.36-1,.7-.69.64-2.72,2.81-2.72,2.81-.18-1.27,1.79-2.77,1.94-2.94a3,3,0,0,0-2,1,3.43,3.43,0,0,0-.75-1.57s.16-.38.25-.53l.51-.84a1,1,0,0,1,.37-.29l.16-.11L162,131c0-.12-.1-.23-.06-.3.27-.41.57-.81.86-1.2l.21-.29a3.62,3.62,0,0,0,.68-2.14,27,27,0,0,1,.41-3,1.44,1.44,0,0,0-.08-.93c-.43-.75-.87-.3-.95-.29.82.3.47.64.39,1.36a11.81,11.81,0,0,0-.39,1.9,5.44,5.44,0,0,1-1.33,3.63c-.53.66-.5,0-1.09-.44a13.76,13.76,0,0,0-1.18-.73l1.26-1.68a7.47,7.47,0,0,0,.44-7.77v0s.4-.26.55-.39a1.84,1.84,0,0,1,1.15-.17,1.15,1.15,0,0,0-1.35-.35c-.2.19-.86.32-1.09,0a2.88,2.88,0,0,0-2.34-1h0a2.2,2.2,0,0,0-1.4.48,2,2,0,0,0,.12.21c.09.16.38.79.44,1a1.34,1.34,0,0,0,.07.18,2.46,2.46,0,0,1,.76-.37c1.3-.29,2,1.32,2,1.32h0c0-.07,0-.14,0-.22l0-.11,0,0c.5.53.63.77.83,2.09a6.49,6.49,0,0,1-1.25,4.44c-.14.22-.3.45-.45.66a6.39,6.39,0,0,0-1,1.67c-.1.36-.08.69.59.71a1.89,1.89,0,0,1,1.51,1.09,2,2,0,0,1-.24,1.79l-.05.08v-.09c0-1.43-.38-2.06-1.17-2.06a1.8,1.8,0,0,0-.44.05,1.52,1.52,0,0,1,.74,1.61c-.29-.49-.58-.49-.89-.37.49.58.7.84.68,1.08s-.2.35-.47.57l.36.44,0,0c-.22.16-.33.3-.34.43a.33.33,0,0,0,.13.25l0,0v0a2.12,2.12,0,0,0-.59,1.3.54.54,0,0,1,.13.37h0L158,136l.09.18v0l0,.06c0,.06-.39.44-.43.5a9.79,9.79,0,0,0-.53,1.17,1.16,1.16,0,0,1-.53.56,5.46,5.46,0,0,0-1.21,1.09.35.35,0,0,1-.55,0,2.31,2.31,0,0,1-.47-1.31l0,0c-.41-.87,1.82-4.33,2-4.82l-.29.24a5.14,5.14,0,0,0-.83.78,5.34,5.34,0,0,0-.51.82c-.12.22-.24.44-.38.65l0,.08v-.1c0-1.1.84-3.23,2.27-3.44.89-.13,1-.42,1.17-.78a.81.81,0,0,0-.06-.58c-.16.13-.31.29-.49.29s-.37-.54-.55-.65a3.06,3.06,0,0,0-1.17-.06s.58.24.63.55a.77.77,0,0,1-.25.58,1.53,1.53,0,0,1-.57.32l-.74-.1c.09.37.15.75.15.75l-1.07-.26s.71,1,.71,1a8.11,8.11,0,0,0-.93-.28,4,4,0,0,0,.61,1l-.29,0c-.7.09-.85,1.25-.94,1.38l-.43-3.48a2.35,2.35,0,0,1,.06-1,10.83,10.83,0,0,1,1.58-1.88,3.23,3.23,0,0,1,2.26-.4c-.24-.09-.58-.43-.84-.53,0,0-.73-.24-.69-.32a8.86,8.86,0,0,0,.7-4.37,6.33,6.33,0,0,1,.21-1.42c.05-.18.09-.37.13-.56l-.13.11,0,0c-.09-.13-.16-.28-.24-.42-.16-.31-.32-.61-.55-.69a.48.48,0,0,0-.18,0,2.28,2.28,0,0,0-.71.19l-.4.14-.56.78s1.24-.84,1.69-.36a.94.94,0,0,1,.27.76c-.16,1.11-.06,2-.2,3.06l-.07.58a5.7,5.7,0,0,1-1.2,2.73,15.08,15.08,0,0,0-1.17,1.67,1.4,1.4,0,0,1-1,.8,3.94,3.94,0,0,1-1.25,0,7.7,7.7,0,0,1-1.52,0,1.39,1.39,0,0,1-1-.8,15.08,15.08,0,0,0-1.17-1.67,5.7,5.7,0,0,1-1.2-2.73l-.07-.58c-.14-1.09,0-2-.2-3.06a.94.94,0,0,1,.27-.76c.45-.48,1.67.36,1.69.36l-.56-.78-.4-.14a2.36,2.36,0,0,0-.71-.19.48.48,0,0,0-.18,0c-.23.08-.39.38-.55.69-.08.14-.15.29-.24.42l0,0-.13-.11c0,.19.08.38.13.56a7,7,0,0,1,.21,1.43A8.71,8.71,0,0,0,145,128c0,.08-.7.33-.7.33-.25.09-.59.43-.83.52a3.23,3.23,0,0,1,2.26.4,10.83,10.83,0,0,1,1.58,1.88,2.53,2.53,0,0,1,.06,1l-.43,3.49c-.09-.13-.24-1.3-.94-1.39l-.29,0a4,4,0,0,0,.61-1,8.43,8.43,0,0,0-.94.28s.73-1,.72-1l-1.07.26s.06-.38.15-.75l-.74.1a1.53,1.53,0,0,1-.57-.32.77.77,0,0,1-.25-.58c.05-.31.63-.55.63-.55a3.06,3.06,0,0,0-1.17.06c-.18.11-.36.65-.55.65s-.34-.16-.49-.29a.81.81,0,0,0-.06.58c.13.36.28.65,1.17.78,1.43.22,2.25,2.34,2.27,3.44v.1l-.05-.08a6.11,6.11,0,0,1-.38-.65,5.34,5.34,0,0,0-.51-.82,5.14,5.14,0,0,0-.83-.78l-.29-.24c.22.49,2.45,3.95,2,4.82-.06.1-.12.12-.18.1s0,.12,0,.17v.19a.37.37,0,0,1-.4.36.94.94,0,0,0,0,.16.35.35,0,0,1-.5.24,2,2,0,0,1-1-.89h0c-.21,0-.43-.28-.6-.58a8.41,8.41,0,0,0-.52-1.17c0-.06-.39-.44-.43-.5l0-.06v0l.1-.18-.24-.15h0a.54.54,0,0,1,.13-.37,2.19,2.19,0,0,0-.59-1.3v0l0,0a.29.29,0,0,0,.12-.25c0-.13-.11-.27-.33-.43l0,0,.36-.44c-.27-.22-.45-.38-.47-.57s.18-.5.68-1.08c-.32-.12-.6-.12-.89.37a1.52,1.52,0,0,1,.74-1.61,1.8,1.8,0,0,0-.44-.05c-.79,0-1.15.63-1.17,2.06v.09l-.05-.08a2,2,0,0,1-.24-1.79,1.89,1.89,0,0,1,1.51-1.09c.67,0,.69-.35.59-.71a6.39,6.39,0,0,0-1-1.67c-.15-.21-.31-.44-.45-.66a6.49,6.49,0,0,1-1.25-4.44c.2-1.32.33-1.56.83-2.09l0-.05,0,.11c0,.08,0,.15,0,.22h0s.71-1.61,2-1.32a2.72,2.72,0,0,1,.76.37,1.34,1.34,0,0,0,.07-.18c.06-.16.35-.79.44-.94l.12-.21a2.17,2.17,0,0,0-1.4-.49h0a2.88,2.88,0,0,0-2.34,1c-.23.27-.9.14-1.09,0a1.18,1.18,0,0,0-1.36.35,1.87,1.87,0,0,1,1.16.17c.15.13.55.39.55.39v0a7.47,7.47,0,0,0,.44,7.77l1.26,1.68a13.76,13.76,0,0,0-1.18.73c-.59.48-.56,1.1-1.09.44a5.44,5.44,0,0,1-1.33-3.62,11.72,11.72,0,0,0-.39-1.91c-.09-.72-.44-1.06.38-1.36-.07,0-.51-.46-.94.29a1.52,1.52,0,0,0-.09.93,24.36,24.36,0,0,1,.42,3,3.59,3.59,0,0,0,.68,2.14l.21.3c.29.38.59.78.86,1.19,0,.07,0,.18-.06.3a.69.69,0,0,0,0,.13l.16.1a1,1,0,0,1,.37.29l.51.84c.09.15.25.53.25.53a3.43,3.43,0,0,0-.75,1.57,3,3,0,0,0-2-1c.15.17,2.12,1.67,1.94,2.94,0,0-2-2.17-2.72-2.81-.37-.34-1.34-.44-1.05-.7a1.51,1.51,0,0,1,1.34-.1c.65.25.24-.29-.34-.61a2.52,2.52,0,0,0-.92-.26c.76-1-.19-1.4-.81-2.14l-.05-.06c-.17-.21-.35-.41-.52-.61a11,11,0,0,1-1.16-1.92,4.63,4.63,0,0,1-.62-4c0-.1.14-.17.27-.27l.26-.21.27,0-.19.61a3.72,3.72,0,0,0,.34,2.55,2.87,2.87,0,0,0,.45.54,4.13,4.13,0,0,1,.14-2.69c.21-.22.77-.54.84-.49.11-.11.2-.44-.51-.76-.86-.41-.17-1.27.58-.9.57-.86-1.3-1-1.3-1-1.37,1-2,1.53-2.13,3.45,0,0-2.35.23-1.8,1.89a2.28,2.28,0,0,1,.89,1.67,8.63,8.63,0,0,0,.67,2.33,1.18,1.18,0,0,1-.79-.27,2.18,2.18,0,0,1-.47-.7,3.81,3.81,0,0,0-.35-1.84s-.52,1.43-1.26,1.07c-.3-.15-.25-.7-.21-1.22a.65.65,0,0,1,.27-.45,1.67,1.67,0,0,1,.44-.17l.16,0-.85-1.86a11.55,11.55,0,0,0-.58,1.08,9.47,9.47,0,0,0-.3,2.23,1.38,1.38,0,0,0,.16.73,1.56,1.56,0,0,0-.73-.17,9.59,9.59,0,0,0-2.23.31,10.29,10.29,0,0,0-1.07.59l1.85.84c0-.05,0-.1,0-.15a1.65,1.65,0,0,1,.16-.44.75.75,0,0,1,.45-.28c.53,0,1.07-.09,1.22.21.37.74-1.06,1.27-1.06,1.27a3.91,3.91,0,0,0,1.84.35,2.27,2.27,0,0,1,.7.46,1.21,1.21,0,0,1,.26.79,8.81,8.81,0,0,0-2.32-.66,2.3,2.3,0,0,1-1.68-.89c-1.65-.55-1.89,1.79-1.89,1.79-1.91.11-2.5.77-3.45,2.13,0,0,.1,1.87,1,1.31-.36-.76.49-1.45.9-.58.33.7.66.61.76.51a2,2,0,0,1,.49-.84,4.09,4.09,0,0,1,2.7-.14,3.22,3.22,0,0,0-.54-.46,3.78,3.78,0,0,0-2.55-.34l-.62.19,0-.27a1.5,1.5,0,0,0,.21-.26.8.8,0,0,1,.27-.26,4.59,4.59,0,0,1,4,.62,11.31,11.31,0,0,1,1.93,1.15c.19.18.4.35.6.52l.06.05c.74.63,1.13,1.57,2.15.81a2.45,2.45,0,0,0,.25.93c.33.57.86,1,.61.33a1.51,1.51,0,0,1,.1-1.34c.26-.29.36.69.7,1.05.64.69,2.82,2.73,2.82,2.73-1.27.18-2.78-1.8-3-1.95a3,3,0,0,0,1,2,3.62,3.62,0,0,0-1.58.75,4.87,4.87,0,0,1-.53-.25l-.84-.51a1,1,0,0,1-.29-.36,1,1,0,0,0-.1-.17l-.12.05c-.12.06-.24.11-.3.06-.41-.27-.81-.56-1.2-.85l-.29-.22a3.57,3.57,0,0,0-2.15-.67,29.43,29.43,0,0,1-3-.42,1.45,1.45,0,0,0-.93.08c-.74.44-.3.87-.29,1,.3-.82.65-.47,1.36-.38a15,15,0,0,0,1.91.39,5.38,5.38,0,0,1,3.62,1.32c.66.53,0,.5-.43,1.09a13.29,13.29,0,0,0-.74,1.19l-1.67-1.27a7.49,7.49,0,0,0-7.78-.44h0s-.27-.4-.39-.55c-.29-.34-.18-1.15-.18-1.15a1.16,1.16,0,0,0-.34,1.35c.19.2.31.86.05,1.09a2.86,2.86,0,0,0-1,2.34h0a2.12,2.12,0,0,0,.48,1.39l.21-.11c.15-.09.78-.38,1-.45l.18-.06a2.7,2.7,0,0,1-.37-.77c-.3-1.3,1.31-2,1.31-2v0l-.21-.05-.11,0,0,0c.53-.5.77-.63,2.1-.83a6.52,6.52,0,0,1,4.43,1.25c.23.14.45.3.67.46a6.59,6.59,0,0,0,1.66,1c.36.1.69.08.72-.59a1.9,1.9,0,0,1,1.08-1.51,2.1,2.1,0,0,1,1.8.24l.07.06H130c-1.42,0-2.06.37-2.06,1.16a2.48,2.48,0,0,0,0,.45,1.53,1.53,0,0,1,1.61-.75c-.48.3-.48.58-.36.9.57-.5.84-.7,1.07-.68s.36.19.57.46l.44-.36,0,0c.17.21.31.32.44.33a.34.34,0,0,0,.25-.13h0a2.08,2.08,0,0,0,1.3.58.64.64,0,0,1,.37-.13h0l.15.23.19-.09h0l.06,0c.07,0,.44.39.5.44.32.23.8.31,1.17.52a2.53,2.53,0,0,1,.32.21h0c.48.17,1.16.46,1,1.1a1.16,1.16,0,0,1-.35.56.31.31,0,0,1-.1.44c-.16.1-.28.25-.44.35s0,0-.08,0a.22.22,0,0,1-.11.1c-.86.41-4.32-1.81-4.81-2l.24.29a4.71,4.71,0,0,0,.78.83,5.5,5.5,0,0,0,.81.5,6.91,6.91,0,0,1,.65.38l.09.05h-.1c-1.11,0-3.23-.83-3.44-2.27-.14-.88-.42-1-.78-1.17a.89.89,0,0,0-.59.06c.14.16.3.31.3.49s-.55.38-.65.55a2.87,2.87,0,0,0-.06,1.17s.23-.58.55-.63a.84.84,0,0,1,.58.25,1.7,1.7,0,0,1,.31.57s-.1.74-.1.74c.37-.09.76-.14.76-.14l-.27,1.06s1-.71,1-.71-.24.7-.28.93a4,4,0,0,0,1-.61s0,.15,0,.29c.08.71,1.25.86,1.38,1l-3.48.42a2.35,2.35,0,0,1-1-.06,10,10,0,0,1-1.88-1.58,3.11,3.11,0,0,1-.4-2.26c-.09.24-.43.58-.53.84,0,0-.24.74-.33.7a8.7,8.7,0,0,0-4.36-.71,5.74,5.74,0,0,1-1.42-.21l-.56-.12.11.13h0a3.38,3.38,0,0,1-.41.24c-.32.17-.61.32-.69.55a.57.57,0,0,0,0,.18,2,2,0,0,0,.19.71c0,.13.1.27.14.4l.77.56s-.83-1.24-.35-1.68a.87.87,0,0,1,.76-.27c1.11.15,2,.06,3.06.19l.57.08a5.69,5.69,0,0,1,2.73,1.19,17.24,17.24,0,0,0,1.67,1.17,1.41,1.41,0,0,1,.81,1,4.3,4.3,0,0,1,0,1.26,7,7,0,0,1,0,1.52,1.42,1.42,0,0,1-.8,1,16.56,16.56,0,0,0-1.67,1.16,5.69,5.69,0,0,1-2.74,1.2l-.57.07c-1.09.14-2,.05-3.06.2a.87.87,0,0,1-.76-.27c-.48-.45.35-1.67.35-1.68l-.77.56c0,.13-.09.26-.14.39a2.09,2.09,0,0,0-.19.71.48.48,0,0,0,0,.18c.08.23.37.39.69.56l.41.23,0,0-.11.13.56-.12a6.26,6.26,0,0,1,1.42-.22,8.64,8.64,0,0,0,4.37-.7c.08,0,.32.7.32.7.1.25.44.6.53.83a3.09,3.09,0,0,1,.4-2.25,9.67,9.67,0,0,1,1.88-1.58,2.2,2.2,0,0,1,1-.06l3.48.42c-.13.09-1.29.24-1.38.94,0,.15,0,.3,0,.3a4.14,4.14,0,0,0-1-.62,8.92,8.92,0,0,0,.27.94s-1-.73-1-.71l.27,1.06s-.38-.06-.76-.15c0,0,.1.73.1.75a1.6,1.6,0,0,1-.31.56.75.75,0,0,1-.58.25c-.32,0-.55-.62-.55-.62a2.87,2.87,0,0,0,.06,1.17c.1.17.65.35.65.55s-.16.33-.29.49a.85.85,0,0,0,.58,0c.36-.13.64-.28.78-1.16.21-1.44,2.33-2.26,3.44-2.28h.1l-.09.06c-.2.14-.43.26-.64.38a5.28,5.28,0,0,0-.82.5,5.11,5.11,0,0,0-.78.83l-.24.29a23.76,23.76,0,0,1,4.14-2,1.14,1.14,0,0,1,.93-.56.34.34,0,0,1,.31.18.4.4,0,0,1,.19.07c.25-.32.8-.06.6.34s-.33.7-.5,1.06a2.1,2.1,0,0,1-.26.64.9.9,0,0,1-.27.35v.11c0,.21-.28.43-.59.6a11.46,11.46,0,0,0-1.17.52c-.05,0-.43.39-.5.44l-.06,0h0l-.18-.1c-.06.08-.1.16-.15.24h0a.52.52,0,0,1-.36-.12,2.08,2.08,0,0,0-1.31.58h0v0a.31.31,0,0,0-.25-.12c-.13,0-.27.11-.44.33l0,0-.43-.37c-.22.27-.38.45-.58.47s-.5-.18-1.07-.68c-.12.32-.12.6.36.89a1.5,1.5,0,0,1-1.6-.74,1.85,1.85,0,0,0-.06.44c0,.8.64,1.16,2.06,1.17h.1l-.08,0a2,2,0,0,1-1.8.24,1.87,1.87,0,0,1-1.08-1.5c0-.67-.36-.7-.72-.59a6.3,6.3,0,0,0-1.66,1c-.22.15-.44.31-.67.45a6.47,6.47,0,0,1-4.43,1.26c-1.33-.21-1.57-.33-2.1-.84l0,0,.11,0,.21,0v0s-1.62-.7-1.32-2a2.46,2.46,0,0,1,.37-.76l-.18-.07a10.26,10.26,0,0,1-1-.44l-.21-.12a2.22,2.22,0,0,0-.48,1.4h0a2.84,2.84,0,0,0,1,2.34,1,1,0,0,1,0,1.09,1.17,1.17,0,0,0,.35,1.36,1.87,1.87,0,0,1,.17-1.16c.12-.14.39-.55.39-.55l0,0a7.51,7.51,0,0,0,7.78-.45l1.67-1.26s.52.91.74,1.19c.47.58,1.09.56.43,1.08a5.34,5.34,0,0,1-3.62,1.33,12.17,12.17,0,0,0-1.91.39c-.71.09-1.06.44-1.36-.38,0,.07-.45.51.29.94a1.46,1.46,0,0,0,.93.09,24.59,24.59,0,0,1,3-.42,3.56,3.56,0,0,0,2.14-.67l.29-.22c.39-.29.79-.59,1.2-.85.07,0,.18,0,.3.05l.12.06.1-.17a1,1,0,0,1,.3-.36l.83-.52c.16-.09.53-.24.53-.24a3.54,3.54,0,0,0,1.58.74,3.08,3.08,0,0,0-1,2c.18-.15,1.68-2.13,2.95-2,0,0-2.18,2-2.81,2.72-.34.37-.45,1.34-.7,1.05a1.49,1.49,0,0,1-.11-1.33c.26-.66-.28-.24-.61.33a2.45,2.45,0,0,0-.25.93c-1-.76-1.41.18-2.15.8l-.06.05-.6.52a10.74,10.74,0,0,1-1.93,1.16,4.59,4.59,0,0,1-4,.62.79.79,0,0,1-.26-.26c-.06-.08-.13-.17-.22-.27l0-.27.62.19a3.72,3.72,0,0,0,2.55-.33,2.59,2.59,0,0,0,.54-.46,4.09,4.09,0,0,1-2.7-.14,2,2,0,0,1-.49-.84c-.1-.11-.43-.19-.76.51-.41.87-1.26.18-.9-.58-.86-.56-1,1.31-1,1.31.95,1.36,1.54,2,3.45,2.12,0,0,.24,2.35,1.89,1.8a2.3,2.3,0,0,1,1.68-.89,9,9,0,0,0,2.33-.66,1.26,1.26,0,0,1-.27.79,2.27,2.27,0,0,1-.7.46,3.91,3.91,0,0,0-1.84.35s1.43.52,1.06,1.26c-.15.31-.69.25-1.22.21a.65.65,0,0,1-.44-.27,1.39,1.39,0,0,1-.17-.44,1.42,1.42,0,0,0,0-.16c-.63.3-1.19.55-1.85.85.12.05.85.52,1.07.59a8.56,8.56,0,0,0,1.75.35,2,2,0,0,0,1.17-.23,5.34,5.34,0,0,0-.2,1,6.71,6.71,0,0,0,.33,1.87c.06.22.53.95.58,1.07l.85-1.85-.15,0a1.67,1.67,0,0,1-.44-.17.65.65,0,0,1-.27-.45c0-.52-.09-1.07.21-1.22.74-.36,1.26,1.07,1.26,1.07a3.91,3.91,0,0,0,.36-1.84,2.27,2.27,0,0,1,.46-.7,1.21,1.21,0,0,1,.79-.26,8.93,8.93,0,0,0-.67,2.32,2.28,2.28,0,0,1-.89,1.68c-.56,1.65,1.78,1.89,1.78,1.89.11,1.92.76,2.5,2.12,3.46,0,0,1.87-.09,1.31-1-.76.37-1.44-.49-.58-.89s.62-.66.51-.76a2.09,2.09,0,0,1-.83-.5,4,4,0,0,1-.13-2.7,3.22,3.22,0,0,0-.46.54,3.73,3.73,0,0,0-.35,2.55l.19.62-.27,0-.26-.22c-.13-.1-.23-.17-.26-.26a4.59,4.59,0,0,1,.63-4,12,12,0,0,1,1.16-1.92c.18-.2.36-.4.53-.61l.05-.05c.62-.74,1.57-1.13.81-2.15a2.45,2.45,0,0,0,.93-.25c.58-.32,1-.86.34-.61a1.51,1.51,0,0,1-1.34-.1c-.29-.26.68-.36,1.05-.7.69-.64,2.74-2.8,2.74-2.8.17,1.27-1.81,2.76-2,2.93a3.06,3.06,0,0,0,2-1,3.48,3.48,0,0,0,.74,1.57s-.16.38-.25.53-.35.56-.52.84a.94.94,0,0,1-.36.29l-.17.1a.61.61,0,0,0,.05.12c.05.13.1.24.06.31-.27.4-.57.8-.86,1.19l-.22.29a3.64,3.64,0,0,0-.68,2.14,26,26,0,0,1-.43,3,1.44,1.44,0,0,0,.08.93c.43.75.87.31,1,.3-.82-.31-.47-.65-.38-1.37a13,13,0,0,0,.4-1.9A5.38,5.38,0,0,1,138,174.1c.53-.66.5,0,1.08.44.28.22,1.18.74,1.18.74L139,177a7.5,7.5,0,0,0-.48,7.77l0,0s-.41.26-.56.39c-.34.28-1.15.16-1.15.16a1.16,1.16,0,0,0,1.35.36c.2-.19.86-.32,1.09,0a2.86,2.86,0,0,0,2.34,1h0a2.14,2.14,0,0,0,1.4-.48l-.12-.21c-.08-.15-.37-.78-.43-1a1.34,1.34,0,0,1-.07-.18,2.59,2.59,0,0,1-.76.37c-1.31.29-2-1.33-2-1.33h0c0,.07,0,.14,0,.21l0,.11,0,0c-.5-.54-.63-.78-.82-2.1a6.51,6.51,0,0,1,1.26-4.43c.14-.23.31-.45.46-.67a6.18,6.18,0,0,0,1-1.66c.11-.36.08-.69-.59-.71a1.9,1.9,0,0,1-1.5-1.09,2.07,2.07,0,0,1,.25-1.8l.05-.07v.09c0,1.42.36,2.06,1.16,2.06a1.8,1.8,0,0,0,.44-.05,1.52,1.52,0,0,1-.74-1.61c.3.49.58.49.9.37-.5-.58-.7-.84-.68-1.08s.2-.35.47-.57l-.36-.44,0,0c.22-.16.33-.3.34-.43a.33.33,0,0,0-.13-.25v0a2.19,2.19,0,0,0,.59-1.3.53.53,0,0,1-.13-.36v0h0l.23-.15-.09-.18h0l0-.07c0-.06.39-.44.44-.49a11.46,11.46,0,0,0,.52-1.17,1.42,1.42,0,0,1,.38-.47c.52-.55,1.16-1.16,1.92-.67a1.18,1.18,0,0,1,.51,1.46c-.25,1.29-1.88,3.82-2.07,4.24l.3-.24a5.11,5.11,0,0,0,.83-.78,6.14,6.14,0,0,0,.51-.81,6.11,6.11,0,0,1,.38-.65l0-.08v.1c0,1.1-.85,3.22-2.28,3.43-.89.13-1,.41-1.18.77a.89.89,0,0,0,.06.59c.16-.14.31-.3.49-.3s.37.55.55.65a2.91,2.91,0,0,0,1.17.07s-.58-.24-.63-.55a.81.81,0,0,1,.25-.58,1.52,1.52,0,0,1,.57-.31l.75.1c-.09-.37-.15-.76-.15-.76l1.06.27s-.7-1-.7-1a8.11,8.11,0,0,0,.93.28,4,4,0,0,0-.61-1l.29,0c.71-.09.86-1.25.95-1.38s.27,2.26.41,3.48a2.2,2.2,0,0,1-.06,1,10.35,10.35,0,0,1-1.59,1.88,3.21,3.21,0,0,1-2.26.39c.24.09.58.43.84.53,0,0,.74.24.69.33a8.7,8.7,0,0,0-.71,4.36,6.37,6.37,0,0,1-.23,1.42l-.12.56L144,182l0,0a4,4,0,0,1,.23.41c.17.31.32.61.55.69a.57.57,0,0,0,.18,0,2.25,2.25,0,0,0,.71-.18,3.17,3.17,0,0,1,.4-.14l.56-.77s-1.24.82-1.68.34a.87.87,0,0,1-.27-.76c.16-1.11.07-2,.21-3.05l.07-.58a5.83,5.83,0,0,1,1.21-2.73,17.53,17.53,0,0,0,1.18-1.66,1.39,1.39,0,0,1,1-.81,7.66,7.66,0,0,1,1.52,0,4,4,0,0,1,1.25,0,1.39,1.39,0,0,1,1,.8,18,18,0,0,0,1.16,1.68,5.76,5.76,0,0,1,1.19,2.74l.07.57c.13,1.09,0,1.95.18,3.06a.87.87,0,0,1-.27.76c-.45.48-1.67-.36-1.68-.36l.56.78a3,3,0,0,1,.39.14,2.36,2.36,0,0,0,.71.19.48.48,0,0,0,.18,0c.23-.08.39-.37.56-.69a3.38,3.38,0,0,1,.24-.41v0l.13.12c0-.19-.08-.38-.12-.57a6.76,6.76,0,0,1-.21-1.42,8.74,8.74,0,0,0-.68-4.37c0-.08.7-.32.7-.32.25-.09.6-.43.83-.52a3.14,3.14,0,0,1-2.25-.41,11,11,0,0,1-1.58-1.89,2.36,2.36,0,0,1-.05-1c.15-1.21.44-3.48.44-3.48s.23,1.3.94,1.39a2.37,2.37,0,0,0,.29,0,3.94,3.94,0,0,0-.62,1,8.43,8.43,0,0,0,.94-.28s-.74,1-.72,1l1.07-.26s-.06.38-.16.75l.75-.09a1.61,1.61,0,0,1,.57.32.76.76,0,0,1,.24.58c-.05.31-.63.54-.63.54a2.87,2.87,0,0,0,1.18-.05c.17-.11.35-.65.55-.65s.33.16.49.3a.88.88,0,0,0,0-.59c-.12-.36-.28-.64-1.16-.78-1.43-.22-2.25-2.35-2.26-3.45v-.1l.05.08c.14.21.26.44.38.65a6.19,6.19,0,0,0,.5.82,4.79,4.79,0,0,0,.83.79l.29.24c-.22-.49-2.43-4-2-4.82.05-.09.1-.12.15-.11,0-.36.08-.72.14-1.09a.36.36,0,0,1,.5-.23,4.3,4.3,0,0,1,1.42,1.11c.21,0,.42.29.58.58a10.73,10.73,0,0,0,.52,1.18s.39.43.43.5l0,.06h0l-.1.19.24.15h0v0a.54.54,0,0,1-.13.37,2.08,2.08,0,0,0,.58,1.3v0h0a.35.35,0,0,0-.12.26c0,.12.11.27.33.43l0,0-.36.44c.27.22.45.38.46.57s-.18.5-.68,1.07c.32.13.6.13.89-.36a1.52,1.52,0,0,1-.74,1.61,2.47,2.47,0,0,0,.44.05c.79,0,1.16-.63,1.17-2.05v-.1l.05.08a2.07,2.07,0,0,1,.23,1.8,1.9,1.9,0,0,1-1.51,1.08c-.67,0-.7.35-.59.71a6.31,6.31,0,0,0,1,1.67,7.83,7.83,0,0,1,.45.67,6.48,6.48,0,0,1,1.24,4.43c-.21,1.33-.33,1.57-.84,2.1l0,0,0-.11c0-.07,0-.14,0-.21h0s-.71,1.61-2,1.31a2.74,2.74,0,0,1-.76-.37l-.06.18c-.07.16-.36.79-.45.95l-.12.2a2.17,2.17,0,0,0,1.4.49h0a2.81,2.81,0,0,0,2.34-1,1,1,0,0,1,1.09.06,1.17,1.17,0,0,0,1.36-.35s-.81.12-1.15-.17c-.15-.13-.55-.39-.55-.39v0a7.48,7.48,0,0,0-.41-7.78l-1.26-1.68a12.61,12.61,0,0,0,1.19-.73c.59-.47.56-1.09,1.09-.43a5.39,5.39,0,0,1,1.31,3.63,13.45,13.45,0,0,0,.38,1.91c.09.71.44,1.06-.38,1.36.07,0,.51.45.94-.29a1.52,1.52,0,0,0,.09-.93,27.39,27.39,0,0,1-.41-3,3.57,3.57,0,0,0-.66-2.15l-.22-.29c-.28-.39-.58-.79-.85-1.2,0-.07,0-.18.06-.3a1.34,1.34,0,0,1,.06-.12l-.17-.11a.94.94,0,0,1-.36-.29l-.51-.84a4.87,4.87,0,0,1-.25-.53,3.48,3.48,0,0,0,.75-1.57,3.08,3.08,0,0,0,2,1c-.14-.17-2.12-1.68-1.93-3,0,0,2,2.18,2.71,2.82.37.34,1.34.45,1,.7a1.48,1.48,0,0,1-1.34.1c-.65-.25-.24.28.33.61a2.55,2.55,0,0,0,.93.26c-.76,1,.18,1.41.8,2.15l.05.06c.17.2.34.41.52.61a10.65,10.65,0,0,1,1.14,1.93,4.59,4.59,0,0,1,.61,4.05.75.75,0,0,1-.27.26l-.26.22-.27,0,.19-.62a3.72,3.72,0,0,0-.33-2.55,2.27,2.27,0,0,0-.45-.54,4,4,0,0,1-.15,2.69,2,2,0,0,1-.84.49c-.11.1-.2.43.5.76.87.41.18,1.27-.58.9-.56.86,1.31,1,1.31,1,1.36-.95,2-1.53,2.14-3.45,0,0,2.34-.22,1.8-1.88a2.25,2.25,0,0,1-.88-1.68,9,9,0,0,0-.66-2.33,1.26,1.26,0,0,1,.79.27,2.27,2.27,0,0,1,.46.7,3.91,3.91,0,0,0,.34,1.84s.53-1.43,1.27-1.06c.3.16.25.7.21,1.23a.7.7,0,0,1-.28.44,1.67,1.67,0,0,1-.44.17l-.16,0c.29.64.55,1.2.84,1.86.06-.12.53-.85.6-1.07a9.59,9.59,0,0,0,.31-2.23,1.43,1.43,0,0,0-.17-.73,1.38,1.38,0,0,0,.73.16,9.06,9.06,0,0,0,2.24-.29,10.34,10.34,0,0,0,1.07-.58l-1.85-.85c0,.05,0,.1,0,.15a1.55,1.55,0,0,1-.17.44.65.65,0,0,1-.45.27c-.52,0-1.07.09-1.22-.21-.36-.74,1.07-1.26,1.07-1.26a4,4,0,0,0-1.84-.36,2.27,2.27,0,0,1-.7-.46,1.21,1.21,0,0,1-.26-.79,9,9,0,0,0,2.33.67,2.31,2.31,0,0,1,1.67.89c1.65.56,1.89-1.78,1.89-1.78,1.92-.11,2.51-.76,3.46-2.12,0,0-.09-1.87-.95-1.31.36.76-.5,1.45-.9.58-.33-.71-.66-.62-.76-.51a2,2,0,0,1-.5.84,4.15,4.15,0,0,1-2.69.13,2.87,2.87,0,0,0,.54.45,3.71,3.71,0,0,0,2.55.35l.61-.19,0,.27a3,3,0,0,0-.21.26c-.1.13-.18.23-.27.26a4.56,4.56,0,0,1-4-.63,11.67,11.67,0,0,1-1.92-1.16l-.6-.53-.06,0c-.74-.62-1.12-1.57-2.15-.81a2.45,2.45,0,0,0-.25-.93c-.32-.57-.86-1-.61-.33a1.49,1.49,0,0,1-.1,1.33c-.26.29-.36-.68-.7-1-.63-.69-2.8-2.73-2.8-2.73,1.27-.18,2.76,1.8,2.93,2a3,3,0,0,0-1-2,3.49,3.49,0,0,0,1.58-.75,4.77,4.77,0,0,1,.52.26l.84.51a1,1,0,0,1,.29.37l.1.16.13,0c.12-.05.23-.1.3-.06.41.27.8.57,1.19.86l.29.22a3.57,3.57,0,0,0,2.14.68,28.38,28.38,0,0,1,3,.43,1.44,1.44,0,0,0,.93-.08c.75-.43.31-.87.3-.94-.3.81-.65.46-1.37.37a11.81,11.81,0,0,0-1.9-.39,5.45,5.45,0,0,1-3.62-1.34c-.66-.53,0-.51.44-1.09a13.51,13.51,0,0,0,.74-1.18l1.67,1.27a7.5,7.5,0,0,0,7.77.47h0s.26.4.39.55a1.92,1.92,0,0,1,.17,1.15,1.17,1.17,0,0,0,.35-1.35c-.19-.2-.31-.86-.05-1.09a2.86,2.86,0,0,0,1-2.34h0a2.16,2.16,0,0,0-.48-1.4l-.21.12c-.15.08-.78.37-.95.44l-.18.06a2.7,2.7,0,0,1,.37.77c.29,1.3-1.32,2-1.32,2v0l.21,0,.11,0,0,0c-.53.51-.77.63-2.1.83a6.53,6.53,0,0,1-4.43-1.27,7.75,7.75,0,0,1-.66-.46,6.68,6.68,0,0,0-1.67-1c-.35-.1-.69-.08-.71.59a1.9,1.9,0,0,1-1.09,1.5,2,2,0,0,1-1.8-.24l-.07-.06h.09c1.42,0,2.06-.36,2.06-1.16a1.8,1.8,0,0,0-.05-.44,1.52,1.52,0,0,1-1.61.74c.49-.3.49-.58.37-.9-.58.5-.84.7-1.08.68s-.35-.2-.57-.47l-.44.36,0,0c-.16-.22-.3-.33-.43-.34a.33.33,0,0,0-.25.13h0a2,2,0,0,0-1.3-.59.52.52,0,0,1-.36.12h0l-.15-.24-.18.1h0l-.06,0c-.07,0-.44-.39-.5-.43a9.79,9.79,0,0,0-1.17-.53c-.3-.17-.56-.39-.58-.6a.52.52,0,0,1,0-.21,4.63,4.63,0,0,1-.65-.52.34.34,0,0,1,0-.49,2.33,2.33,0,0,1-.27-.52.36.36,0,0,1,.22-.44,3,3,0,0,1,1.31-.09s0,0,.06,0c1.21.08,4,1.9,4.46,2.1l-.24-.29a5.18,5.18,0,0,0-.78-.84,5.5,5.5,0,0,0-.81-.5c-.22-.12-.44-.24-.65-.38l-.08-.06h.1c1.1,0,3.22.85,3.43,2.29.13.88.41,1,.77,1.17a.84.84,0,0,0,.59-.06c-.14-.16-.3-.31-.3-.49s.55-.37.65-.54a3,3,0,0,0,.07-1.18s-.24.58-.55.63A.77.77,0,0,1,170,158a1.52,1.52,0,0,1-.31-.57l.1-.75a6.53,6.53,0,0,1-.76.15l.27-1.06s-1,.71-1,.71a8.43,8.43,0,0,0,.28-.94,4,4,0,0,0-1,.61,2.48,2.48,0,0,0,0-.29c-.09-.7-1.25-.86-1.38-.95l3.48-.41a2.35,2.35,0,0,1,1,.06,10.77,10.77,0,0,1,1.88,1.59,3.17,3.17,0,0,1,.39,2.26c.09-.24.43-.58.53-.83,0,0,.24-.74.33-.7a8.71,8.71,0,0,0,4.36.72,5.83,5.83,0,0,1,1.42.22l.56.12-.11-.13,0,0a4,4,0,0,1,.41-.23c.32-.17.61-.32.69-.55a.48.48,0,0,0,0-.18,2.25,2.25,0,0,0-.18-.71c-.05-.13-.1-.27-.14-.4l-.77-.56s.83,1.24.34,1.68a.87.87,0,0,1-.76.27c-1.1-.16-2-.07-3-.21l-.58-.07a5.83,5.83,0,0,1-2.73-1.21,15.89,15.89,0,0,0-1.66-1.17,1.37,1.37,0,0,1-.8-1,7,7,0,0,1,0-1.52,4,4,0,0,1,0-1.25,1.39,1.39,0,0,1,.81-1,17.79,17.79,0,0,0,1.67-1.16,5.76,5.76,0,0,1,2.74-1.19l.57-.07c1.09-.13,2,0,3.06-.18a.87.87,0,0,1,.76.27c.48.45-.36,1.67-.36,1.68l.78-.55c0-.13.09-.27.14-.4a2.36,2.36,0,0,0,.19-.71.48.48,0,0,0,0-.18c-.08-.23-.37-.39-.69-.56l-.41-.23,0,0,.12-.13-.57.12a6.17,6.17,0,0,1-1.42.21,8.74,8.74,0,0,0-4.37.68c-.08,0-.32-.7-.32-.7-.09-.25-.43-.59-.52-.83a3.14,3.14,0,0,1-.41,2.25,10.35,10.35,0,0,1-1.88,1.58,2.42,2.42,0,0,1-1,0l-3.48-.43c.13-.09,1.3-.24,1.39-.94a2.48,2.48,0,0,0,0-.29,4,4,0,0,0,1,.61,8.11,8.11,0,0,0-.28-.93s1,.73,1,.71l-.26-1.06a7,7,0,0,1,.76.15s-.1-.73-.1-.75a1.52,1.52,0,0,1,.32-.56.77.77,0,0,1,.58-.25c.31,0,.54.63.54.63a2.83,2.83,0,0,0,0-1.17c-.11-.18-.65-.36-.65-.55s.16-.34.3-.49a.84.84,0,0,0-.59-.06c-.36.13-.64.28-.78,1.16-.22,1.44-2.34,2.25-3.45,2.26h-.1l.08-.05c.21-.14.44-.26.65-.38a4.94,4.94,0,0,0,.83-.5,5.14,5.14,0,0,0,.78-.83l.24-.29c-.47.21-3.65,2.23-4.69,2.05a.83.83,0,0,1-.63.09h0a.65.65,0,0,1-.5-.61,2.06,2.06,0,0,1,.36-1.25,5,5,0,0,1,.27-.62.3.3,0,0,1,.28-.18,1.71,1.71,0,0,1,.37-.25,11.46,11.46,0,0,0,1.17-.52c.06,0,.43-.39.5-.43l.06,0h0l.18.1.15-.23v0h0a.6.6,0,0,1,.37.13,2.08,2.08,0,0,0,1.3-.58h0l0,0a.29.29,0,0,0,.25.12c.12,0,.27-.11.43-.33l0,0,.44.36c.22-.27.38-.44.57-.46s.5.18,1.07.68c.13-.32.13-.6-.36-.89a1.51,1.51,0,0,1,1.61.75,1.82,1.82,0,0,0,.05-.45c0-.79-.63-1.15-2.05-1.17h-.09l.07-.06a2.07,2.07,0,0,1,1.8-.23,1.9,1.9,0,0,1,1.08,1.51c0,.67.35.7.71.6a6.64,6.64,0,0,0,1.67-1c.22-.15.44-.31.67-.45a6.49,6.49,0,0,1,4.44-1.24c1.32.21,1.56.34,2.09.84l0,0-.11,0-.21,0a0,0,0,0,1,0,0s1.62.7,1.31,2A2.46,2.46,0,0,1,182.84,144.63Zm-47.22,9.54a1,1,0,0,1-1,.06,3.5,3.5,0,0,0-1.59-.3,4.13,4.13,0,0,1-.85-.11,5,5,0,0,0-.56-.1,6.93,6.93,0,0,0-1.29-.05c-.5.05-.68-.6-.73-1.07,0-.08,0-.33,0-.58h0c0-.3,0-.69,0-.8.05-.47.23-1.12.73-1.08a6.17,6.17,0,0,0,1.29,0,5.48,5.48,0,0,0,.56-.1,3.48,3.48,0,0,1,.85-.11,3.44,3.44,0,0,0,1.58-.31,1,1,0,0,1,1,.07c.61.44.45,1.67.41,2.16,0,.06,0,.21,0,.21C136.12,152.51,136.23,153.72,135.62,154.17Zm28.51-4.47a1,1,0,0,1,1-.06,3.57,3.57,0,0,0,1.58.31,3.56,3.56,0,0,1,.85.12c.18,0,.37.08.56.1a6.9,6.9,0,0,0,1.29,0c.5,0,.68.61.72,1.08,0,.11,0,.5,0,.8h0c0,.25,0,.5,0,.58-.05.47-.23,1.12-.74,1.07a7.76,7.76,0,0,0-1.28,0,5.67,5.67,0,0,0-.57.1,3.41,3.41,0,0,1-.85.11,3.43,3.43,0,0,0-1.58.3,1,1,0,0,1-1-.07c-.61-.45-.5-1.66-.43-2.15,0,0,0-.15,0-.21C163.67,151.37,163.52,150.14,164.13,149.7Zm9.48-17.33a3,3,0,0,0,2.12-.59.94.94,0,0,1,.78-.2c.3.1.45.89.45.89a9.38,9.38,0,0,0-4,1.84h0a4.33,4.33,0,0,1-1.17.55,5.57,5.57,0,0,0-1,.42,1.56,1.56,0,0,1-1.06.19h0l0,0a10,10,0,0,1,1.45-1.95,1.61,1.61,0,0,1,.38-.31A4.42,4.42,0,0,1,173.61,132.37Zm-7.06-1.31a5.57,5.57,0,0,0,.42-1,4.36,4.36,0,0,1,.56-1.17h0a9.2,9.2,0,0,0,1.86-4s.79.16.89.46a1,1,0,0,1-.2.79,3,3,0,0,0-.6,2.11,4.34,4.34,0,0,1-.82,2,1.23,1.23,0,0,1-.31.37,9.41,9.41,0,0,1-2,1.45h0v0A1.55,1.55,0,0,1,166.55,131.06Zm-7,4c1.05-.16-.95,3.38-.95,3.38-.72.12-.72-.51-.72-.51Zm-1.76,5.18s1.33,1.11,2.19,1.9,1.58,1.84,1.58,1.84c-1.11.65-4.87,1.75-6.39,2.45C155.88,145,157.13,141.4,157.78,140.28Zm-10.25-3.58a3.48,3.48,0,0,0,.3-1.59,4.15,4.15,0,0,1,.12-.85,5,5,0,0,0,.1-.56,6.8,6.8,0,0,0,0-1.28c-.05-.51.6-.69,1.07-.73l.58,0h0c.31,0,.7,0,.81,0,.47.05,1.12.23,1.07.74a6.82,6.82,0,0,0,0,1.28,5,5,0,0,0,.1.56,3.54,3.54,0,0,1,.11.85,3.62,3.62,0,0,0,.31,1.59.94.94,0,0,1-.07,1c-.44.62-1.66.46-2.16.42a1.1,1.1,0,0,0-.21,0c-.49.07-1.7.18-2.14-.43A1,1,0,0,1,147.53,136.7Zm-3,9.88c-1.52-.72-5.2-2-6.31-2.6,0,0,1-1.25,1.8-2.11s1.9-1.6,1.9-1.6C142.58,141.39,143.83,145.07,144.54,146.58Zm-4.37-11.49,1.67,2.87s0,.63-.72.51C141.12,138.47,139.12,134.93,140.17,135.09Zm-10.54-8.94a1,1,0,0,1-.21-.78c.11-.31.9-.46.9-.46a9.21,9.21,0,0,0,1.86,4h0a4.36,4.36,0,0,1,.56,1.17,5.57,5.57,0,0,0,.42,1,1.63,1.63,0,0,1,.2,1.06v0l0,0a10.05,10.05,0,0,1-2-1.44,1.57,1.57,0,0,1-.3-.38,4.34,4.34,0,0,1-.82-2.05A3,3,0,0,0,129.63,126.15Zm.43,9.26a1.51,1.51,0,0,1-1.06-.2,5.93,5.93,0,0,0-1-.42,4.65,4.65,0,0,1-1.17-.55h0a9.25,9.25,0,0,0-4-1.86s.15-.79.46-.89a1,1,0,0,1,.78.2,3,3,0,0,0,2.11.61,4.46,4.46,0,0,1,2.06.81,1.79,1.79,0,0,1,.37.31,9.76,9.76,0,0,1,1.44,2l0,0Zm5.86,8.48-2.87-1.67c-.16-1.05,3.37.95,3.37.95C136.54,143.89,135.92,143.89,135.92,143.89Zm.5-1.56c-.16-.08-2.64-1.29-1.83-1.42a1.91,1.91,0,0,1,1.46.5c.18.12,1.25.56.79-.19a4,4,0,0,0-1.09-1l-.39-.31-.87-.66a15.61,15.61,0,0,1-1.48-1.21,5.81,5.81,0,0,1-.81-1l-.07-.12.08,0a6.68,6.68,0,0,1,1.8,1c.28.22.56.42.84.62,0,0,0,0,0,0a1.08,1.08,0,0,1-.12-.91l-.12-.15c-.73-.83-1.56-1.6-2.22-2.48a3.27,3.27,0,0,0-.36-.25,10.4,10.4,0,0,1-1.63-.82c-.2-.24-1.14-3-2.3-3.58a4,4,0,0,0-1-.19,6.63,6.63,0,0,0-.1-1.05A.47.47,0,0,0,127,129l.13.08a8.4,8.4,0,0,0,1,.1,4.75,4.75,0,0,0,.19,1c.64,1.15,3.34,2.1,3.58,2.3a5.84,5.84,0,0,1,.56,1.16,20.89,20.89,0,0,0,3.42,3.23h0a.8.8,0,0,1,.57,0c-.18-.26-.36-.5-.55-.75a6.42,6.42,0,0,1-1-1.8l0-.09.11.08a5.94,5.94,0,0,1,1.05.8,18.49,18.49,0,0,1,1.2,1.48l.67.87.31.39a3.85,3.85,0,0,0,.95,1.09c.76.47.32-.6.2-.79a1.86,1.86,0,0,1-.5-1.46c.12-.81,1.34,1.67,1.42,1.84a1.21,1.21,0,0,1,0,.88c-.19.3-.2.54-.45.81-.1.1-.75.46-.88.55-.32.23-.61,1.37-1.61,1.6A1.78,1.78,0,0,1,136.42,142.33ZM133,161.59l2.87-1.67s.63,0,.5.73C136.41,160.65,132.88,162.65,133,161.59Zm-6.83,9.94a3,3,0,0,0-2.12.61.94.94,0,0,1-.78.2c-.31-.11-.46-.9-.46-.9a9.12,9.12,0,0,0,4-1.85h0A4.68,4.68,0,0,1,128,169a5.17,5.17,0,0,0,1-.42,1.56,1.56,0,0,1,1.06-.19h0l0,0a10.05,10.05,0,0,1-1.44,2,1.85,1.85,0,0,1-.37.31A4.46,4.46,0,0,1,126.21,171.53Zm6.91,1.17a5.57,5.57,0,0,0-.42,1,4.85,4.85,0,0,1-.56,1.17h0a9.28,9.28,0,0,0-1.87,4s-.79-.15-.89-.46a1,1,0,0,1,.2-.78,3,3,0,0,0,.61-2.11,4.46,4.46,0,0,1,.83-2,1.36,1.36,0,0,1,.31-.37,10.05,10.05,0,0,1,2-1.44h0v0A1.5,1.5,0,0,1,133.12,172.7Zm5.72-5.56a1.87,1.87,0,0,1,.51-1.46c.12-.18.57-1.25-.19-.79a4.06,4.06,0,0,0-1,1.09l-.3.39c-.19.23-.49.63-.67.87a17,17,0,0,1-1.22,1.47,5.86,5.86,0,0,1-1,.8l-.12.08,0-.09a6.46,6.46,0,0,1,1-1.8,3.15,3.15,0,0,0,.22-.29h0a1,1,0,0,1-.77-.07l-.33.29c-.89,1-1.85,1.92-2.67,3a.25.25,0,0,1-.18.11,2.64,2.64,0,0,1-.3.59c-.24.2-3,1.13-3.59,2.29a4.56,4.56,0,0,0-.19,1,8.07,8.07,0,0,0-1,.1h0c.1-.24,0-.85.1-1a4,4,0,0,0,1-.19c1.16-.64,2.1-3.34,2.31-3.58a7.76,7.76,0,0,1,1.34-.72c.67-.61,1.34-1.22,2-1.84.3-.4.58-.82.84-1.25a1.31,1.31,0,0,1,.1-.61l.1-.17c-.26.18-.51.37-.77.57a6.53,6.53,0,0,1-1.8,1l-.08,0,.07-.12a5.18,5.18,0,0,1,.81-1,15.61,15.61,0,0,1,1.48-1.21l.87-.67.39-.3a4,4,0,0,0,1.09-1c.46-.76-.61-.31-.79-.19a1.9,1.9,0,0,1-1.46.5c-.81-.13,1.67-1.35,1.83-1.42a1.23,1.23,0,0,1,.89,0c.29.19.53.2.8.46.11.1.45.74.56.87a10.28,10.28,0,0,0,1.13.78c.26.27.27.51.46.8a1.29,1.29,0,0,1,0,.89C140.19,165.48,139,168,138.84,167.14Zm1.31,1.55c-1.06.15,1-3.38,1-3.38.72-.12.72.51.72.51Zm1.78-5.18s-1.32-1-2.18-1.84-1.53-1.84-1.53-1.84c1.12-.65,4.95-2,6.45-2.72C144,158.54,142.6,162.38,141.93,163.51Zm10.23,3.6a3.62,3.62,0,0,0-.31,1.59,3.54,3.54,0,0,1-.11.85,5,5,0,0,0-.1.56,6.07,6.07,0,0,0,0,1.28c0,.51-.61.69-1.08.73-.11,0-.5,0-.8,0h-.58c-.47,0-1.12-.23-1.07-.74a6.93,6.93,0,0,0,0-1.29c0-.18-.06-.37-.1-.56a3.48,3.48,0,0,1-.11-.85,3.43,3.43,0,0,0-.3-1.58,1,1,0,0,1,.07-1c.45-.61,1.66-.5,2.15-.43l.21,0c.5,0,1.72-.2,2.16.42A1,1,0,0,1,152.16,167.11Zm3.05-9.87c1.5.72,5.18,2,6.29,2.63,0,0-.82,1.06-1.61,1.9s-2.11,1.79-2.11,1.79C157.13,162.45,155.92,158.76,155.21,157.24Zm4.31,11.51-1.66-2.88s0-.62.72-.5C158.58,165.37,160.57,168.92,159.52,168.75Zm10.51,9a1,1,0,0,1,.2.78c-.11.3-.9.45-.9.45a9.27,9.27,0,0,0-1.84-4h0a4.65,4.65,0,0,1-.55-1.17,5.57,5.57,0,0,0-.42-1,1.56,1.56,0,0,1-.19-1.06v0l0,0a9.78,9.78,0,0,1,2,1.45,1.57,1.57,0,0,1,.3.38,4.42,4.42,0,0,1,.81,2.05A3,3,0,0,0,170,177.74Zm-.39-9.26a1.5,1.5,0,0,1,1.05.2,5.57,5.57,0,0,0,1,.42,4.38,4.38,0,0,1,1.17.57h0a9.06,9.06,0,0,0,4,1.87s-.16.79-.47.9a1,1,0,0,1-.78-.21,3,3,0,0,0-2.11-.61,4.44,4.44,0,0,1-2.05-.82,1.85,1.85,0,0,1-.37-.31,10.14,10.14,0,0,1-1.44-2v0ZM163.81,160l2.87,1.68c.15,1.06-3.37-1-3.37-1C163.18,160,163.81,160,163.81,160Zm-1.4,1.59a1.24,1.24,0,0,1,.89,0c.17.08,2.64,1.31,1.83,1.43a1.9,1.9,0,0,1-1.46-.5c-.18-.13-1.25-.57-.79.19a4.21,4.21,0,0,0,1.09,1l.39.3c.23.19.63.5.87.67a17,17,0,0,1,1.47,1.22,5.5,5.5,0,0,1,.8,1l.08.11-.09,0a6.46,6.46,0,0,1-1.8-1c-.25-.2-.51-.39-.77-.57a1.83,1.83,0,0,1,0,.33.28.28,0,0,1,.27.09,13.6,13.6,0,0,1,2.14,3.31,12,12,0,0,1,2,.88c.2.24,1.13,2.95,2.29,3.59a4.12,4.12,0,0,0,.95.2,8.08,8.08,0,0,0,.1,1,1,1,0,0,0,.08.14l-.14-.09a8.07,8.07,0,0,0-1.05-.1,4,4,0,0,0-.19-1c-.63-1.16-3.33-2.11-3.57-2.32a5.38,5.38,0,0,1-.55-1.05.35.35,0,0,1-.28-.09,7.18,7.18,0,0,1-.95-1c-.69-.69-1.41-1.35-2.13-2l-.25.05h-.17c.1.15.21.29.33.44a6.55,6.55,0,0,1,1,1.81l0,.08-.12-.08a5.81,5.81,0,0,1-1-.81,15.51,15.51,0,0,1-1.2-1.48l-.66-.87-.31-.39a4,4,0,0,0-1-1.1c-.76-.46-.32.61-.2.79a1.92,1.92,0,0,1,.5,1.47c-.13.8-1.34-1.68-1.42-1.85a1.74,1.74,0,0,1,0-.88c.24-1,1.38-1.28,1.6-1.61.09-.13.46-.77.56-.87C161.88,161.75,162.12,161.75,162.41,161.56Zm.23-9.79a.89.89,0,0,0,0,.31c.46,1.1-.8,2.62-.84,2.09-.1-1.43-1.16-.44-1.33.61l-.69-.92c-.16,0-.52.89-.13,1.25,1.16,1.14.79,1.92.79,1.92l-1.39-1c-.08.3-.14.54-.21.82l0,.15h0a9.23,9.23,0,0,1-6-2.2h0a9.26,9.26,0,0,1,2.16,6v0l-.16,0-.82.2,1,1.39s-.78.37-1.92-.8c-.35-.39-1.21,0-1.25.13l.92.69c-1.06.16-2.05,1.21-.62,1.33.53,0-.95,1.28-2,.81a.92.92,0,0,0-.31,0c-1.1.46-2.61-.81-2.09-.84,1.43-.1.45-1.17-.61-1.33l.93-.69c0-.16-.9-.52-1.25-.13-1.15,1.16-1.93.78-1.93.78l1-1.38-.81-.21-.16,0v0a9.28,9.28,0,0,1,2.2-6h0a9.28,9.28,0,0,1-6,2.18h0l0-.15c-.07-.28-.13-.52-.2-.82l-1.39,1s-.38-.77.79-1.92c.39-.35,0-1.21-.13-1.25l-.69.93c-.16-1.06-1.22-2.05-1.33-.62,0,.52-1.3-1-.83-2.09a.94.94,0,0,0,0-.31c-.47-1.09.78-2.57.82-2,.11,1.43,1.17.44,1.33-.62l.69.92c.16,0,.52-.89.13-1.24-1.17-1.15-.79-1.92-.79-1.92l1.39,1c.07-.31.13-.55.2-.82l0-.16h0a9.28,9.28,0,0,1,6,2.18h0a9.26,9.26,0,0,1-2.18-6v0l.16,0,.82-.2-1-1.39s.78-.37,1.92.79c.36.39,1.22,0,1.25-.13l-.92-.69c1.06-.16,2-1.22.62-1.32-.53,0,1-1.3,2.09-.84a.89.89,0,0,0,.31,0c1.09-.46,2.56.79,2,.83-1.43.1-.44,1.16.62,1.32l-.92.69c0,.16.89.52,1.25.13,1.14-1.16,1.92-.79,1.92-.79l-1,1.39.82.2.16,0v0a9.26,9.26,0,0,1-2.18,6h.06a9.19,9.19,0,0,1,6-2.15h0l0,.15c.07.28.13.52.2.82l1.4-1s.37.78-.81,1.92c-.39.35,0,1.21.13,1.25l.69-.92c.16,1.06,1.22,2,1.33.62C161.87,149.21,163.11,150.68,162.64,151.77Zm-.16-9.42a5.88,5.88,0,0,1-.8-.46c-.09-.07-.53-.83-.66-1h0c-.23-.2-1-.61-1.11-.71-.25-.27-.26-.51-.45-.81a1.21,1.21,0,0,1,0-.88c.08-.17,1.3-2.65,1.42-1.84a1.86,1.86,0,0,1-.5,1.46c-.12.19-.56,1.25.19.79a3.87,3.87,0,0,0,1-1.09l.31-.39.67-.87a16.53,16.53,0,0,1,1.2-1.48,5.94,5.94,0,0,1,1-.8l.11-.08,0,.08a6.47,6.47,0,0,1-1,1.81c-.27.34-.51.68-.76,1a1,1,0,0,1,.64-.21h.1a12.71,12.71,0,0,0,3.34-3,8.71,8.71,0,0,1,.7-1.46c.25-.2,2.95-1.15,3.59-2.3a4.75,4.75,0,0,0,.19-1c.14-.05.86-.06,1.22-.12-.07.32-.05,1.05-.1,1.2a4.13,4.13,0,0,0-1,.19c-1.16.63-2.11,3.33-2.32,3.57a6.42,6.42,0,0,1-1.27.55c-1.26.87-2.08,2.2-3.21,3.23h0a1.32,1.32,0,0,1,0,.81c.27-.19.54-.38.81-.59a6.58,6.58,0,0,1,1.81-1l.08,0-.07.12a6,6,0,0,1-.82,1,14.11,14.11,0,0,1-1.48,1.2l-.87.67-.39.3a4,4,0,0,0-1.1.95c-.46.76.61.32.79.2a1.88,1.88,0,0,1,1.47-.49c.8.13-1.68,1.33-1.84,1.41A1.23,1.23,0,0,1,162.48,142.35Zm1.38,1.59s-.62,0-.5-.72c0,0,3.55-2,3.38-.94Z"
          transform="translate(-2.51 -3.36)"/>
    <path class="cls-2"
          d="M139.9,180.15c-1.05,2.37.95,4.39,1.86,4.31.08,0,.81-.43.57-.32a.86.86,0,0,1-1.09-1.16c.35-.47.9.2.9.2s-.57-4.56-.63-4.52c-.09-.19-.22-.33-.5-.91a22.16,22.16,0,0,1,0,2.44C140.81,180.32,140,180.14,139.9,180.15Zm1.42,1.74a10.14,10.14,0,0,0-.66,1.09s-1-1.81-.34-2.21S141.51,181.62,141.32,181.89Z"
          transform="translate(-2.51 -3.36)"/>
    <path class="cls-2"
          d="M157.21,184.19c-.23-.11.49.31.58.32.9.09,2.92-1.92,1.89-4.29-.14,0-.91.16-1.1,0a21.74,21.74,0,0,1,0-2.43c-.29.57-.42.71-.51.91-.06,0-.66,4.51-.66,4.51s.55-.67.9-.19A.86.86,0,0,1,157.21,184.19Zm1-2.25c-.18-.27.26-1.58,1-1.1s-.36,2.2-.36,2.2A10.79,10.79,0,0,0,158.24,181.94Z"
          transform="translate(-2.51 -3.36)"/>
    <path class="cls-2"
          d="M182.16,132.63l-16.69-31.47-8.16-15.38c-.55.71-1.88,2.52-3.07,4.15-4,5.46-4.05,5.46-4.3,5.48h-.16l-.12-.11c-.18-.17-.8-1-2-2.53-1.68-2.23-4.14-5.48-5.22-6.6-1,1.78-5.2,9.8-10.57,20l-.9,1.7-11.55,22c0,.54,1,.29,1,.29a6.72,6.72,0,0,0,.67-1.15c.57-1.89,3.53-2.28,3.53-2.28s1.94-6,3-4.76c1.6,1.84,1.61-1.26,3-2.25,2.29-1.62,3.78.13,4.22-2,.37-1.87,5.67-2.21,8.58-2.32.38,0,6.41-4.63,6.41-4.63s6.56,4.54,7,4.59c5.41.55,5.72.82,6.73,1.58s1,2.53,2.69,2.43c.75,0,1.39-1.35,3.8,1.47.68.79.54,1.4.87,1.87.57.8,1.6-1.36,2.55.11.44.69,1.87,3.25,1.87,3.25a4.75,4.75,0,0,1,1.45.71c3,2,1.85,1.39,2.28,3.9C179.34,131.72,181,131.56,182.16,132.63Z"
          transform="translate(-2.51 -3.36)"/>
    <path class="cls-2"
          d="M181.38,171.39a8.74,8.74,0,0,1-2.27,1.09c-1.16.44,1.35,1.35-1.15,3.41a6.73,6.73,0,0,1-3,1.47s-.9,1.94-1.45,3.37-2.25.74-2.7,1.18c-1,.94-1.18,1.69-2.13,2.63-2.18,2.13-2.09.36-3.73,1-1.3.46-1.73,1.92-3.84,2.42s-2.81.84-4.76.5L149.89,193l-6.5-4.55a16.9,16.9,0,0,1-4.32-.43c-2.11-.5-3-2.07-4.34-2.54-1.65-.59-2.66.44-3.73-1a21.38,21.38,0,0,0-2.13-2.62c-.46-.45-1.91.43-2.4-.78-.57-1.43-1.76-3.78-1.76-3.78A6.51,6.51,0,0,1,122,176c-2.06-1.42-.26-3.14-1.41-3.59a8.75,8.75,0,0,1-2.27-1.08c-.22-.12-.22-.24-.22.14,11.3,22.93,31.71,63,31.71,63s20.46-40,31.76-63C181.6,171.16,181.6,171.27,181.38,171.39Z"
          transform="translate(-2.51 -3.36)"/>
    <path class="cls-2" d="M137.34,60.09c-11.85,35-28,83.49-30.18,90.36,0,0,24.74-48.43,36.91-72.08Z"
          transform="translate(-2.51 -3.36)"/>
    <polygon class="cls-2" points="142.34 77.92 140.91 80.5 146.38 88.19 142.34 77.92"/>
    <polygon class="cls-2" points="152.48 77.92 148.34 88.19 153.85 80.35 152.48 77.92"/>
    <path class="cls-2" d="M151.58,70.15c.66,1.28,2.13,3.87,3.17,5.88l.87-2.75C155,74.37,153.11,70.43,151.58,70.15Z"
          transform="translate(-2.51 -3.36)"/>
    <path class="cls-2" d="M144.11,73.52l.86,2.84c.19-.38,3.53-6.28,3.92-7C147.44,69.74,146,73.06,144.11,73.52Z"
          transform="translate(-2.51 -3.36)"/>
    <path class="cls-2"
          d="M148.76,47a4.86,4.86,0,0,1,.42.59,3.75,3.75,0,0,1,.64,1.46,1.32,1.32,0,0,0,.76-1.3c.33-5.82,1.47-7.13,4.44-8.92l-.87-2.56s-1.78,1.65-3.68,3.69c-1.55,1.66-4.31-3.86-4.73-4.25l-.62,1.83A21.21,21.21,0,0,0,148.76,47Z"
          transform="translate(-2.51 -3.36)"/>
    <path class="cls-2"
          d="M146.29,68.29a1.42,1.42,0,0,1-.58.28.35.35,0,0,1-.18.16,4.52,4.52,0,0,0-1.81.71.37.37,0,0,1-.2.08,4.83,4.83,0,0,0-.4,1.24c.19.59.29.94.29.92a32.77,32.77,0,0,1,3.62-3.2A2.69,2.69,0,0,0,146.29,68.29Z"
          transform="translate(-2.51 -3.36)"/>
    <path class="cls-2"
          d="M155.27,69a2.24,2.24,0,0,0-.77.25c-.28.16-1.64-1.13-1.58-1.39-.27.08-1.65-.42-1.91-.37,1.59,1.36,5.35,4.27,5.36,4.16l.42-1.32C156.29,70,155.79,69.17,155.27,69Z"
          transform="translate(-2.51 -3.36)"/>
    <path class="cls-2"
          d="M146.93,64.6c-.26-.12-.53-.22-.8-.33a2.11,2.11,0,0,1-2.37-.45l-.36-.29a2.4,2.4,0,0,1-.65-.5,2.66,2.66,0,0,0-.39-.07c-.67-.09-1.54-.17-1.6.14a41.2,41.2,0,0,1,1.46,4.72,6.82,6.82,0,0,1,3.71-1.55,10.51,10.51,0,0,1,1.72.39,4.84,4.84,0,0,0,2-.26C149,66,147.53,65,146.93,64.6Z"
          transform="translate(-2.51 -3.36)"/>
    <path class="cls-2"
          d="M150.31,64.82c1.37-.8,2.77-1.53,4.17-2.29a9.88,9.88,0,0,0-2.9-.21,3.76,3.76,0,0,0-1,.8.94.94,0,0,0-.09.12c-.06.53-.13,1.06-.17,1.6Z"
          transform="translate(-2.51 -3.36)"/>
    <path class="cls-2"
          d="M156.78,63.72a3,3,0,0,1-.64.47h0a5.14,5.14,0,0,1-2.41,1l-1.65.84c1,.29,2,.65,2.92,1a12.71,12.71,0,0,1,2.39,1.14c.16-.83.45-2.37.43-2.46A3.48,3.48,0,0,0,156.78,63.72Z"
          transform="translate(-2.51 -3.36)"/>
    <path class="cls-2"
          d="M156.12,42.07c-.36,2.1-1.76,1.66-2.72,3a2.91,2.91,0,0,0-.09,3.36c.52.64,1.88-.08,1.88-.08a2.15,2.15,0,0,1-1.39,1.48s-2.15.66-2.44-.53a6.13,6.13,0,0,0-.54,3.62s0,0,0,0c.13.17.27.33.41.48a1.22,1.22,0,0,0,.35.14,1.59,1.59,0,0,0,.65,0c.06-.12.13-.26.21-.4,1.79-3.24,5.56-3.24,5.49-5.74C157.32,45.59,156.7,43.75,156.12,42.07Z"
          transform="translate(-2.51 -3.36)"/>
    <path class="cls-2"
          d="M159.45,51.88c-.66.5-2.94-.37-2.75,3.85.16,3.36-1,1.08-1.46-.67-.3-1.12,0-2.61-.23-2.53a4.07,4.07,0,0,0-.66.33.29.29,0,0,1-.08.31,6.67,6.67,0,0,1-1.12,1c-.43.61-1,.93-1.19.72h0a.32.32,0,0,1-.39-.14l-.16-.19a2.14,2.14,0,0,1-.39-.16,5,5,0,0,1-2-2.88,7.94,7.94,0,0,1-.8-2.14c-.25-1-2.76-1-3.59-2.26-1.3-1.94-.66-4.17-1-5.09-.8,2.35-1.81,5.45-2.6,7.76a3.6,3.6,0,0,0,2.33.79c.76,0-.94-3.39,3.09,0,2.16,1.83-.43,2.09-.28,5.91,2.38-2,6-1,8.09,1.44l.73.56.27.15a6,6,0,0,0,2.55-.15c.52-.54.29-1.27,1-2s2.38.2,2.38.2C160.79,55.81,160.32,54.44,159.45,51.88Z"
          transform="translate(-2.51 -3.36)"/>
    <path class="cls-2"
          d="M160.23,59.39a4.24,4.24,0,0,1-2.5.39,4.3,4.3,0,0,1-1.6,0,.29.29,0,0,1-.25.12,4.45,4.45,0,0,1-1.73-.44c-.32.21-.62.19-.59-.21a1.29,1.29,0,0,0,0-.28.7.7,0,0,1-.09-.17c-2.33-1.5-3.88-.7-5.68-.07-1.3.45-2.44,1-3.22.45-.5-.34-.4-1.57-.45-2.13a16.67,16.67,0,0,0-.34-3.25,3.24,3.24,0,0,1-4-.64l-1.12,3.29s.22.69.69,2.21c.18-1.6,3.42-2.12,3.42-2.12A10.41,10.41,0,0,0,141.14,59a1.42,1.42,0,0,0,.16,1.48,8.06,8.06,0,0,0,4.95,1c3.29-1.17,1.55.36,1.57,1.59a.24.24,0,0,1,.06.09c.49,1.15,1.75-.67,2.13-1.14.18-.22.35-.47.54-.72,1.3-3.31,3.72.25,5.55-.55a.33.33,0,0,1,.4.14C158.12,65.16,161.89,58.37,160.23,59.39Z"
          transform="translate(-2.51 -3.36)"/>
</svg>