<?xml version="1.0" standalone="no"?>
<!DOCTYPE svg PUBLIC "-//W3C//DTD SVG 20010904//EN"
 "http://www.w3.org/TR/2001/REC-SVG-20010904/DTD/svg10.dtd">
<svg version="1.0" xmlns="http://www.w3.org/2000/svg"
 width="855.000000pt" height="1280.000000pt" viewBox="0 0 855.000000 1280.000000"
 preserveAspectRatio="xMidYMid meet">
<metadata>
Created by potrace 1.15, written by Peter Selinger 2001-2017
</metadata>
<g transform="translate(0.000000,1280.000000) scale(0.100000,-0.100000)"
fill="#000000" stroke="none">
<path d="M3988 12786 c-131 -48 -250 -248 -348 -585 -43 -150 -50 -185 -50
-259 0 -176 88 -256 310 -281 51 -6 94 -12 96 -14 7 -7 44 -426 44 -498 0
-112 -12 -261 -20 -252 -4 4 -15 33 -25 63 -9 30 -56 132 -102 225 -191 381
-267 471 -408 483 -172 14 -339 -167 -516 -558 -29 -63 -53 -116 -54 -118 -1
-1 -31 11 -66 28 -160 75 -308 10 -444 -195 -89 -135 -142 -256 -287 -654 -73
-202 -81 -245 -76 -396 6 -143 27 -208 91 -281 65 -74 134 -100 311 -119 80
-8 186 -15 236 -15 85 0 90 -1 95 -22 12 -57 22 -262 16 -350 l-6 -97 -170
-109 c-370 -235 -665 -378 -830 -402 -38 -5 -196 -15 -350 -21 -154 -6 -283
-14 -286 -18 -16 -15 -53 -151 -53 -194 0 -67 29 -95 113 -107 131 -18 426 35
686 123 321 110 535 210 778 364 51 33 67 39 67 27 0 -40 -56 -262 -100 -395
-26 -80 -78 -213 -116 -295 -57 -125 -77 -157 -120 -199 -83 -80 -90 -82 -156
-42 -31 19 -84 40 -118 47 -161 34 -272 -23 -597 -308 -87 -76 -184 -157 -216
-181 -68 -50 -103 -99 -119 -169 -7 -28 -19 -54 -28 -57 -15 -6 -208 -19 -504
-33 l-150 -7 -27 -75 c-54 -146 -34 -207 77 -230 100 -21 370 19 577 86 l108
35 42 -43 c23 -25 55 -53 70 -64 l29 -20 -79 -51 c-206 -134 -382 -224 -483
-248 -61 -14 -309 -32 -515 -38 l-90 -2 -22 -60 c-29 -80 -31 -182 -3 -217 64
-82 323 -52 665 76 260 98 483 214 683 357 45 32 87 59 93 59 6 0 42 -10 81
-21 l70 -22 -59 -59 c-94 -97 -308 -272 -448 -367 -242 -164 -496 -308 -595
-336 -60 -18 -226 -33 -447 -41 l-182 -6 -21 -64 c-22 -65 -29 -152 -16 -191
13 -41 54 -57 156 -61 111 -4 222 16 400 73 127 41 380 145 491 201 161 81
390 240 564 390 65 57 242 251 358 395 l22 27 100 -9 c345 -32 667 65 744 224
38 79 26 147 -51 267 -19 30 -55 93 -79 140 -24 47 -90 154 -146 239 -57 85
-103 157 -103 161 0 4 32 39 72 76 357 341 533 579 722 974 142 297 200 466
252 732 14 75 24 97 62 150 82 113 341 556 386 661 74 175 149 422 190 632 64
327 68 673 10 983 -6 31 -5 32 30 32 56 0 182 29 240 54 59 26 108 78 126 132
30 90 -10 302 -89 469 -40 85 -176 297 -244 378 -75 91 -166 124 -249 93z
m-210 -2768 c-52 -107 -149 -280 -182 -323 -14 -18 -15 -11 -16 87 0 59 -5
153 -11 208 -6 56 -8 104 -5 107 3 3 49 10 103 15 54 5 111 12 128 17 16 4 32
7 34 5 2 -2 -21 -54 -51 -116z m-405 85 c3 -5 8 -44 11 -88 l5 -80 -14 65 c-8
36 -17 75 -20 88 -5 20 8 31 18 15z m22 -600 l-7 -78 -106 -109 c-59 -59 -156
-151 -217 -203 l-110 -95 -6 133 c-4 74 -10 150 -14 170 l-7 37 74 7 c93 9
232 49 280 80 47 31 84 71 99 107 6 15 14 28 16 28 3 0 2 -35 -2 -77z m-124
-600 c-71 -212 -163 -406 -282 -588 -66 -102 -220 -307 -226 -302 -1 2 11 45
28 97 45 145 92 352 125 557 4 25 21 45 87 96 45 36 132 110 192 164 61 55
111 99 113 98 1 -1 -16 -56 -37 -122z"/>
<path d="M7193 10549 c-101 -49 -255 -254 -381 -505 -76 -153 -95 -212 -96
-299 0 -59 4 -78 27 -117 15 -25 45 -60 67 -78 48 -38 166 -82 283 -105 83
-17 87 -19 87 -44 0 -14 9 -123 19 -241 21 -230 17 -399 -13 -595 -12 -84 -18
-96 -74 -180 -33 -50 -68 -107 -78 -127 l-17 -38 -49 51 c-179 187 -378 46
-628 -446 -84 -164 -106 -240 -98 -333 11 -114 78 -180 238 -232 l99 -33 -60
-68 c-61 -69 -212 -211 -324 -305 -73 -61 -222 -174 -229 -174 -3 0 -6 31 -6
69 0 78 -23 222 -46 294 -28 84 -141 335 -173 380 -65 95 -153 147 -222 132
l-28 -6 14 48 c78 253 121 498 134 768 11 219 -8 449 -54 650 -4 18 6 23 83
43 190 51 309 120 344 200 25 56 26 139 3 220 -24 81 -100 224 -166 312 -58
76 -285 292 -372 354 -123 87 -242 105 -349 53 -156 -77 -283 -331 -372 -748
-6 -25 -14 -19 -153 121 -162 161 -219 200 -297 200 -60 0 -89 -12 -135 -58
-49 -48 -82 -114 -126 -248 -40 -123 -47 -157 -76 -358 -20 -133 -21 -159 -10
-233 l12 -85 -39 -62 c-120 -190 -221 -460 -365 -976 -82 -293 -91 -345 -84
-485 9 -173 59 -322 144 -431 63 -79 107 -103 245 -135 106 -25 144 -29 275
-29 l152 0 6 -57 c3 -32 8 -71 10 -87 4 -25 -5 -39 -74 -110 -74 -75 -120
-147 -121 -188 0 -9 -32 -56 -71 -103 -62 -73 -87 -95 -178 -149 -127 -76
-281 -160 -285 -155 -1 2 -8 42 -15 89 -19 130 -38 194 -98 330 -103 234 -153
309 -227 344 -49 23 -130 21 -183 -6 -115 -58 -339 -379 -434 -622 l-27 -69
-70 -18 c-82 -21 -169 -63 -269 -130 -92 -63 -150 -111 -423 -354 -299 -266
-349 -309 -388 -333 l-34 -20 -111 29 c-62 16 -190 50 -285 75 -192 51 -172
52 -250 -20 -52 -49 -85 -107 -77 -139 7 -28 107 -93 172 -113 62 -19 253 -60
321 -69 44 -6 52 -10 47 -24 -4 -9 -11 -50 -17 -91 -5 -41 -10 -75 -11 -77 -2
-1 -116 -5 -254 -9 l-252 -7 -35 -60 c-64 -107 -64 -202 1 -240 63 -36 290
-39 519 -7 44 6 87 12 96 13 11 1 37 -24 71 -68 98 -128 255 -238 476 -334 62
-27 109 -51 104 -54 -18 -11 -185 -47 -283 -62 -58 -8 -195 -22 -305 -31 -110
-8 -203 -18 -206 -22 -17 -19 -54 -255 -54 -342 1 -110 17 -150 75 -185 53
-31 221 -27 355 8 266 70 488 181 825 412 l136 93 53 -9 c81 -13 420 -31 447
-25 37 10 28 -5 -29 -49 -209 -159 -593 -402 -812 -513 -127 -63 -338 -144
-417 -157 -82 -15 -297 -30 -597 -43 l-165 -7 -24 -60 c-33 -85 -50 -173 -41
-215 17 -73 79 -100 235 -100 426 0 1238 314 1732 671 197 142 446 356 560
480 37 41 54 50 130 74 372 115 544 358 437 617 -5 14 3 17 52 23 97 11 291
45 413 71 127 28 355 91 383 105 23 13 22 0 -8 -107 -240 -839 -857 -1496
-1962 -2089 -355 -190 -728 -342 -938 -381 -47 -9 -151 -17 -251 -18 -93 -1
-177 -7 -185 -12 -8 -5 -117 -10 -244 -12 -126 -2 -236 -5 -243 -7 -21 -7 -82
-147 -88 -201 -14 -112 50 -156 231 -162 61 -2 142 1 180 6 61 8 75 7 108 -10
29 -14 97 -25 275 -43 386 -40 523 -35 1123 40 416 52 742 112 1069 196 274
71 616 180 698 223 19 10 35 16 37 14 5 -4 -127 -108 -215 -170 -163 -114
-465 -276 -695 -373 -379 -160 -872 -321 -1190 -390 -156 -34 -295 -43 -655
-44 -330 -2 -321 0 -365 -76 -32 -54 -30 -91 8 -119 27 -20 41 -21 230 -20
256 0 470 26 823 99 334 69 439 94 599 143 477 146 927 350 1257 569 142 94
477 389 555 488 40 51 46 55 61 42 24 -21 130 -73 180 -88 54 -16 66 -38 64
-114 -5 -184 -122 -398 -303 -554 -344 -298 -1025 -559 -1899 -730 -147 -29
-174 -31 -539 -40 -371 -10 -385 -11 -407 -32 -33 -30 -49 -75 -35 -93 29 -35
226 -47 424 -26 51 5 144 14 207 20 297 29 658 94 974 176 401 104 900 306
1156 469 89 57 412 336 443 384 42 64 143 273 155 321 6 25 14 73 18 108 l7
62 46 0 c122 1 188 39 221 127 20 53 22 70 16 193 -3 74 -8 149 -11 165 -6 29
-2 32 137 118 225 139 390 259 620 452 476 399 712 679 960 1137 106 195 154
311 239 586 118 381 143 526 143 847 0 188 -3 224 -27 346 -15 75 -27 138 -27
141 0 3 62 3 138 0 418 -14 593 131 596 493 2 178 -23 670 -39 775 -38 253
-147 573 -252 738 -130 205 -286 286 -450 234 l-62 -20 -47 95 c-82 166 -170
234 -280 217 l-45 -6 8 28 c4 16 8 139 7 274 -1 196 -5 266 -20 351 l-19 106
80 6 c150 12 204 40 250 132 29 57 30 65 29 185 -1 171 -23 276 -91 435 -103
243 -148 316 -222 365 -55 37 -132 40 -198 9z m-1757 -1653 c5 -57 6 -102 2
-99 -5 2 -8 9 -8 15 0 6 -16 45 -35 88 -19 43 -35 83 -35 89 0 6 15 11 33 11
l33 0 10 -104z m19 -683 c-16 -166 -66 -407 -119 -573 -17 -54 -11 -67 -81
191 -30 114 -61 222 -69 240 -32 79 -32 79 16 79 96 0 196 42 231 95 12 19 23
35 25 35 2 0 1 -30 -3 -67z m1535 -1017 c0 -2 -13 -32 -30 -67 -56 -120 -74
-208 -74 -369 0 -207 35 -311 136 -406 66 -61 129 -88 302 -128 81 -19 150
-36 153 -40 3 -3 14 -171 24 -373 17 -338 17 -377 3 -483 -72 -535 -282 -1025
-619 -1445 -102 -126 -312 -343 -437 -452 -204 -175 -470 -363 -726 -510 l-92
-54 -31 35 c-55 64 -152 73 -229 22 l-40 -26 0 67 c0 68 -23 233 -35 253 -4 6
12 10 44 10 64 0 146 17 193 41 42 21 72 59 94 121 33 87 15 345 -32 485 -24
70 -132 311 -161 357 -64 103 -136 151 -217 144 -67 -6 -114 -29 -170 -85 -25
-25 -46 -43 -46 -41 0 3 9 31 21 64 11 32 38 126 58 208 l38 149 189 96 c104
53 235 126 291 161 237 150 274 182 569 488 290 301 331 352 429 532 151 276
234 536 271 843 15 126 14 350 -2 392 -5 13 4 15 60 15 36 0 66 -2 66 -4z
m-302 -336 c-6 -168 -35 -315 -99 -505 -192 -565 -585 -978 -1264 -1331 l-166
-86 7 178 c6 161 -2 323 -22 427 -6 27 -5 27 45 27 144 0 428 55 561 110 186
75 310 212 310 341 0 61 -26 116 -101 215 -40 52 -70 96 -68 97 2 2 42 30 89
62 208 143 524 424 660 588 31 38 46 49 49 38 2 -8 1 -81 -1 -161z m-2408
-1065 c15 -14 15 -22 -1 -112 -36 -198 -42 -217 -74 -232 -100 -48 -595 -228
-595 -216 0 1 73 61 163 132 186 149 348 295 425 382 29 34 56 61 59 61 4 0
14 -7 23 -15z m280 -140 l35 -12 -62 -32 c-34 -17 -65 -31 -68 -31 -8 0 -6 21
6 63 11 41 7 41 89 12z m325 -77 c2 -2 13 -80 24 -175 23 -190 25 -270 7 -448
l-11 -120 -70 -28 c-252 -102 -599 -188 -711 -175 l-32 3 114 215 c92 175 120
238 150 340 20 69 44 131 53 138 9 8 104 70 211 138 172 109 199 124 229 120
18 -3 35 -6 36 -8z m-763 -465 c-21 -54 -77 -179 -127 -278 l-90 -180 -40 -3
-41 -3 -47 108 c-26 59 -67 143 -91 186 -28 49 -40 79 -33 82 69 19 303 105
382 139 55 24 105 44 112 45 6 1 -4 -39 -25 -96z m553 -1672 c41 -80 156 -145
313 -178 l79 -17 23 -144 c30 -191 22 -329 -29 -485 -11 -33 -18 -38 -169
-100 -727 -302 -1581 -555 -2012 -597 -120 -12 -297 -13 -284 -2 5 5 36 19 69
32 115 45 381 177 530 265 268 157 534 347 749 536 217 190 299 281 506 561
l195 264 7 -53 c4 -29 14 -66 23 -82z"/>
<path d="M1351 7844 c0 -11 3 -14 6 -6 3 7 2 16 -1 19 -3 4 -6 -2 -5 -13z"/>
<path d="M1155 7680 c10 -11 20 -20 23 -20 3 0 -3 9 -13 20 -10 11 -20 20 -23
20 -3 0 3 -9 13 -20z"/>
<path d="M1130 6636 c0 -2 8 -10 18 -17 15 -13 16 -12 3 4 -13 16 -21 21 -21
13z"/>
<path d="M1361 5654 c0 -11 3 -14 6 -6 3 7 2 16 -1 19 -3 4 -6 -2 -5 -13z"/>
<path d="M953 5313 c15 -2 39 -2 55 0 15 2 2 4 -28 4 -30 0 -43 -2 -27 -4z"/>
<path d="M170 5026 c0 -2 8 -10 18 -17 15 -13 16 -12 3 4 -13 16 -21 21 -21
13z"/>
<path d="M644 4835 c0 -60 1 -84 3 -52 2 32 2 81 0 110 -2 29 -3 3 -3 -58z"/>
<path d="M845 4778 l-50 -53 53 50 c48 46 57 55 49 55 -1 0 -25 -24 -52 -52z"/>
<path d="M751 4634 c0 -11 3 -14 6 -6 3 7 2 16 -1 19 -3 4 -6 -2 -5 -13z"/>
<path d="M575 4510 c-4 -6 -11 -7 -17 -4 -7 4 -8 2 -4 -5 6 -9 11 -9 22 0 14
11 18 19 10 19 -3 0 -8 -5 -11 -10z"/>
<path d="M1264 4195 c0 -49 1 -71 3 -48 2 23 2 64 0 90 -2 26 -3 8 -3 -42z"/>
<path d="M551 4174 c0 -11 3 -14 6 -6 3 7 2 16 -1 19 -3 4 -6 -2 -5 -13z"/>
<path d="M948 3833 c6 -2 18 -2 25 0 6 3 1 5 -13 5 -14 0 -19 -2 -12 -5z"/>
<path d="M2043 3135 c0 -22 2 -30 4 -17 2 12 2 30 0 40 -3 9 -5 -1 -4 -23z"/>
<path d="M2022 2650 c0 -14 2 -19 5 -12 2 6 2 18 0 25 -3 6 -5 1 -5 -13z"/>
<path d="M1298 1453 c7 -3 16 -2 19 1 4 3 -2 6 -13 5 -11 0 -14 -3 -6 -6z"/>
<path d="M2302 1405 c0 -16 2 -22 5 -12 2 9 2 23 0 30 -3 6 -5 -1 -5 -18z"/>
<path d="M2312 1175 c0 -16 2 -22 5 -12 2 9 2 23 0 30 -3 6 -5 -1 -5 -18z"/>
</g>
</svg>
