<?xml version="1.0" standalone="no"?>
<!DOCTYPE svg PUBLIC "-//W3C//DTD SVG 20010904//EN"
 "http://www.w3.org/TR/2001/REC-SVG-20010904/DTD/svg10.dtd">
<svg version="1.0" xmlns="http://www.w3.org/2000/svg"
 width="1280.000000pt" height="640.000000pt" viewBox="0 0 1280.000000 640.000000"
 preserveAspectRatio="xMidYMid meet">
<metadata>
Created by potrace 1.15, written by Peter Selinger 2001-2017
</metadata>
<g transform="translate(0.000000,640.000000) scale(0.100000,-0.100000)"
fill="#9d9d9d" stroke="none">
<path d="M9179 4841 c-76 -42 -175 -174 -251 -337 -26 -55 -30 -74 -26 -124 3
-49 10 -65 33 -90 29 -30 106 -60 191 -75 35 -5 43 -11 48 -33 13 -63 18 -462
7 -587 l-12 -130 37 -32 c20 -17 49 -35 64 -38 27 -6 27 -7 18 -48 -13 -56 -1
-147 25 -199 41 -81 140 -107 402 -103 198 3 279 39 306 136 10 37 9 61 -6
149 -10 58 -20 117 -23 133 -4 24 -1 27 26 27 l30 0 7 -136 c4 -75 4 -227 0
-338 l-7 -202 36 -32 c40 -35 49 -37 95 -21 l31 11 0 364 c0 340 1 364 18 364
9 0 40 11 69 24 65 31 83 63 83 152 0 124 -50 259 -154 417 -84 128 -147 166
-214 129 -58 -32 -130 -147 -182 -290 -13 -34 -27 -65 -31 -68 -4 -2 -31 10
-58 27 -45 27 -51 35 -51 65 l0 34 59 0 c102 0 123 33 137 210 5 67 2 100 -11
150 -38 137 -70 175 -150 175 -44 0 -61 -6 -100 -33 -26 -18 -48 -32 -49 -30
-1 2 -10 29 -20 62 -21 70 -145 256 -198 299 -49 40 -125 47 -179 18z m249
-674 c-8 -27 -7 -41 7 -70 17 -36 28 -42 143 -82 9 -3 11 -18 6 -57 -6 -44
-13 -59 -44 -88 -53 -49 -110 -142 -141 -229 l-26 -74 -6 129 c-9 162 -9 417
-1 467 6 34 9 37 39 37 33 0 33 0 23 -33z"/>
<path d="M5485 4801 c-86 -39 -161 -160 -210 -341 -15 -52 -42 -150 -61 -217
-19 -67 -34 -134 -34 -148 0 -14 -2 -25 -4 -25 -2 0 -30 16 -62 35 -71 43
-112 55 -185 55 -157 0 -264 -100 -357 -335 -22 -55 -54 -133 -71 -174 -41
-96 -42 -159 -3 -231 21 -41 39 -59 79 -82 52 -29 54 -30 202 -29 134 1 150
-1 155 -17 11 -36 45 -313 56 -447 10 -131 12 -141 36 -162 35 -32 70 -38 108
-20 29 13 32 19 29 49 -3 18 -20 139 -38 268 -18 129 -36 260 -40 290 l-6 55
92 13 c95 13 211 48 254 76 70 46 76 120 20 250 -20 48 -36 88 -34 90 2 2 43
6 91 10 l86 6 8 -78 c7 -66 8 -183 3 -462 0 -30 0 -76 1 -102 1 -26 -1 -68 -4
-92 -7 -44 -6 -46 35 -76 44 -32 94 -39 143 -21 19 8 23 15 19 32 -6 21 -4 22
38 15 24 -4 86 -11 137 -16 52 -5 97 -11 100 -14 15 -15 23 -342 12 -508 -6
-98 -8 -182 -5 -188 3 -5 26 -22 51 -36 41 -24 51 -26 92 -18 l47 9 0 375 0
375 95 16 c90 15 142 28 183 44 16 7 18 4 13 -26 -3 -19 -10 -105 -17 -191
-12 -146 -11 -159 5 -177 26 -29 71 -44 110 -37 l33 6 6 283 c4 155 10 300 14
322 l8 40 83 7 c259 21 345 112 297 313 -8 32 -13 61 -11 63 2 1 25 -1 52 -5
l49 -8 8 -140 c5 -85 5 -211 -1 -320 l-11 -180 26 -27 c15 -15 34 -30 42 -33
9 -3 24 -27 34 -54 32 -90 108 -131 242 -131 54 0 54 0 61 -35 9 -51 10 -348
1 -435 l-7 -75 42 -28 c43 -28 70 -32 128 -21 l32 7 -7 293 -7 294 38 0 c53 0
143 23 189 46 58 30 78 74 71 159 -6 81 -66 295 -103 369 -73 144 -166 242
-258 271 -49 15 -62 16 -103 4 -85 -24 -163 -125 -233 -304 l-28 -70 0 206 -1
206 60 6 c100 11 163 46 197 112 26 48 20 199 -11 320 -27 105 -111 288 -187
403 -43 66 -105 112 -152 112 -95 0 -191 -110 -307 -351 -30 -63 -56 -115 -56
-117 -1 -2 -22 18 -45 43 -95 103 -178 137 -275 116 -83 -19 -166 -103 -229
-232 -25 -51 -45 -99 -45 -106 0 -18 -5 -17 -50 13 -26 17 -60 29 -97 33 l-57
6 -12 70 c-14 80 -81 293 -120 381 -36 82 -125 216 -187 282 -58 62 -151 112
-207 112 -19 0 -53 -9 -75 -19z"/>
<path d="M4150 4619 c-56 -23 -116 -98 -173 -214 -100 -204 -102 -307 -6 -355
22 -12 76 -26 120 -33 l80 -11 -2 -186 -3 -185 37 -18 c26 -13 47 -16 68 -12
l32 7 -6 198 -6 198 66 12 c166 29 210 81 178 215 -8 36 -24 84 -36 108 -33
64 -154 222 -194 253 -40 30 -113 41 -155 23z"/>
<path d="M8510 4489 c-97 -38 -150 -113 -186 -263 -30 -122 -27 -142 28 -177
29 -18 46 -20 138 -17 l104 3 7 -40 c3 -22 9 -63 12 -91 l6 -52 -49 -30 c-55
-34 -100 -93 -193 -252 -53 -91 -62 -112 -65 -165 -3 -50 0 -66 20 -95 31 -47
88 -74 190 -90 l86 -13 7 -175 c7 -169 4 -307 -8 -319 -3 -3 -20 0 -38 6 -47
16 -158 13 -213 -5 -62 -21 -186 -135 -186 -170 0 -35 54 -90 113 -114 33 -14
59 -32 69 -49 29 -52 84 -84 148 -89 l59 -4 7 51 c7 53 24 81 50 81 51 0 174
98 174 137 0 10 -15 33 -34 53 l-34 35 -2 210 c-1 116 -2 237 -1 271 l1 61 79
6 c91 7 141 25 165 58 36 51 6 269 -54 398 -37 77 -110 167 -156 189 -39 18
-40 21 -49 129 l-7 82 44 11 c88 22 132 44 142 73 11 31 -12 134 -45 198 -25
49 -102 124 -155 149 -44 22 -131 26 -174 9z"/>
<path d="M2694 4150 c-46 -20 -106 -76 -128 -118 -8 -15 -28 -65 -46 -111 -26
-67 -31 -89 -23 -114 14 -49 61 -75 154 -83 l79 -7 2 -96 c1 -53 2 -148 3
-210 0 -113 0 -115 26 -129 16 -10 35 -13 53 -8 l28 7 -7 183 c-4 100 -4 197
0 214 6 31 9 32 55 32 76 0 145 18 170 45 21 23 22 30 16 101 -7 92 -36 159
-95 226 -23 25 -61 56 -84 67 -55 27 -145 27 -203 1z"/>
<path d="M3589 4084 c-91 -28 -202 -159 -282 -336 -19 -40 -64 -134 -100 -208
-74 -152 -86 -193 -87 -299 0 -93 14 -141 58 -191 44 -52 70 -65 173 -85 46
-9 107 -21 135 -26 l51 -10 -4 -192 c-2 -106 -10 -250 -18 -321 -14 -125 -13
-130 6 -158 16 -22 28 -28 59 -28 21 0 42 5 46 11 4 7 15 161 24 343 10 182
18 332 19 334 0 1 33 2 73 2 l72 0 -28 -29 c-40 -42 -31 -90 26 -131 23 -17
47 -30 55 -30 9 0 12 -7 7 -25 -17 -68 31 -108 132 -109 70 -1 93 13 125 77
11 20 27 37 35 37 18 0 19 2 -48 -81 -44 -54 -47 -81 -14 -130 30 -44 85 -82
158 -109 33 -12 59 -29 63 -39 12 -38 63 -74 112 -78 67 -7 101 9 121 56 15
35 23 41 72 55 81 22 158 73 197 130 18 26 33 55 33 64 0 9 -33 48 -73 88 -53
51 -95 82 -152 110 -76 36 -85 38 -176 39 l-95 0 10 28 c10 26 7 31 -34 68
-60 54 -177 111 -241 117 l-50 5 8 41 c13 65 7 198 -17 366 -25 186 -38 238
-85 350 -71 166 -157 272 -243 298 -49 15 -65 14 -123 -4z"/>
<path d="M2372 3349 c-33 -13 -78 -44 -118 -81 -71 -67 -80 -95 -44 -141 21
-27 104 -70 155 -81 23 -5 37 -19 57 -55 45 -82 134 -109 204 -64 24 15 39 48
49 106 5 29 14 43 44 61 42 27 91 81 91 101 0 23 -99 104 -169 137 -88 42
-190 48 -269 17z"/>
<path d="M10616 3226 c-39 -17 -80 -45 -118 -83 -65 -64 -72 -92 -36 -138 22
-28 109 -75 141 -75 9 0 17 -7 17 -15 0 -9 11 -27 25 -40 19 -20 34 -25 72
-25 58 0 145 38 168 73 9 14 26 28 39 31 36 9 104 63 122 98 l17 32 -52 48
c-118 108 -274 145 -395 94z"/>
<path d="M1655 3056 c-58 -18 -86 -35 -144 -88 -43 -39 -51 -51 -46 -70 12
-38 45 -66 99 -84 28 -9 61 -25 73 -36 58 -53 158 -53 203 0 14 16 36 33 50
37 45 14 99 54 115 85 16 30 15 31 -19 63 -61 57 -183 107 -261 106 -16 0 -48
-6 -70 -13z"/>
<path d="M9577 2815 c-3 -88 -13 -207 -22 -264 -14 -97 -14 -105 2 -123 12
-14 28 -18 57 -16 65 5 70 23 74 288 l3 225 -54 25 -54 25 -6 -160z"/>
</g>
</svg>
